<?xml version="1.0" encoding="utf-8"?>
<svg xmlns="http://www.w3.org/2000/svg" xmlns:xlink="http://www.w3.org/1999/xlink" width="600" height="400" viewBox="0 0 2400 1600">
<defs>
  <clipPath id="clip960">
    <rect x="0" y="0" width="2400" height="1600"/>
  </clipPath>
</defs>
<path clip-path="url(#clip960)" d="M0 1600 L2400 1600 L2400 0 L0 0  Z" fill="#ffffff" fill-rule="evenodd" fill-opacity="1"/>
<defs>
  <clipPath id="clip961">
    <rect x="361" y="188" width="1851" height="1093"/>
  </clipPath>
</defs>
<path clip-path="url(#clip960)" d="M361.02 1281.45 L2211.02 1281.45 L2211.02 188.976 L361.02 188.976  Z" fill="#ffffff" fill-rule="evenodd" fill-opacity="1"/>
<polyline clip-path="url(#clip961)" style="stroke:#000000; stroke-linecap:round; stroke-linejoin:round; stroke-width:2; stroke-opacity:0.1; fill:none" points="413.378,1281.45 413.378,188.976 "/>
<polyline clip-path="url(#clip961)" style="stroke:#000000; stroke-linecap:round; stroke-linejoin:round; stroke-width:2; stroke-opacity:0.1; fill:none" points="849.7,1281.45 849.7,188.976 "/>
<polyline clip-path="url(#clip961)" style="stroke:#000000; stroke-linecap:round; stroke-linejoin:round; stroke-width:2; stroke-opacity:0.1; fill:none" points="1286.02,1281.45 1286.02,188.976 "/>
<polyline clip-path="url(#clip961)" style="stroke:#000000; stroke-linecap:round; stroke-linejoin:round; stroke-width:2; stroke-opacity:0.1; fill:none" points="1722.34,1281.45 1722.34,188.976 "/>
<polyline clip-path="url(#clip961)" style="stroke:#000000; stroke-linecap:round; stroke-linejoin:round; stroke-width:2; stroke-opacity:0.1; fill:none" points="2158.67,1281.45 2158.67,188.976 "/>
<polyline clip-path="url(#clip961)" style="stroke:#000000; stroke-linecap:round; stroke-linejoin:round; stroke-width:2; stroke-opacity:0.1; fill:none" points="361.02,1186.11 2211.02,1186.11 "/>
<polyline clip-path="url(#clip961)" style="stroke:#000000; stroke-linecap:round; stroke-linejoin:round; stroke-width:2; stroke-opacity:0.1; fill:none" points="361.02,864.041 2211.02,864.041 "/>
<polyline clip-path="url(#clip961)" style="stroke:#000000; stroke-linecap:round; stroke-linejoin:round; stroke-width:2; stroke-opacity:0.1; fill:none" points="361.02,541.968 2211.02,541.968 "/>
<polyline clip-path="url(#clip961)" style="stroke:#000000; stroke-linecap:round; stroke-linejoin:round; stroke-width:2; stroke-opacity:0.1; fill:none" points="361.02,219.895 2211.02,219.895 "/>
<polyline clip-path="url(#clip960)" style="stroke:#000000; stroke-linecap:round; stroke-linejoin:round; stroke-width:4; stroke-opacity:1; fill:none" points="361.02,1281.45 2211.02,1281.45 "/>
<polyline clip-path="url(#clip960)" style="stroke:#000000; stroke-linecap:round; stroke-linejoin:round; stroke-width:4; stroke-opacity:1; fill:none" points="413.378,1281.45 413.378,1262.55 "/>
<polyline clip-path="url(#clip960)" style="stroke:#000000; stroke-linecap:round; stroke-linejoin:round; stroke-width:4; stroke-opacity:1; fill:none" points="849.7,1281.45 849.7,1262.55 "/>
<polyline clip-path="url(#clip960)" style="stroke:#000000; stroke-linecap:round; stroke-linejoin:round; stroke-width:4; stroke-opacity:1; fill:none" points="1286.02,1281.45 1286.02,1262.55 "/>
<polyline clip-path="url(#clip960)" style="stroke:#000000; stroke-linecap:round; stroke-linejoin:round; stroke-width:4; stroke-opacity:1; fill:none" points="1722.34,1281.45 1722.34,1262.55 "/>
<polyline clip-path="url(#clip960)" style="stroke:#000000; stroke-linecap:round; stroke-linejoin:round; stroke-width:4; stroke-opacity:1; fill:none" points="2158.67,1281.45 2158.67,1262.55 "/>
<path clip-path="url(#clip960)" d="M318.113 1325.21 Q321.469 1325.93 323.344 1328.2 Q325.242 1330.47 325.242 1333.8 Q325.242 1338.92 321.724 1341.72 Q318.205 1344.52 311.724 1344.52 Q309.548 1344.52 307.233 1344.08 Q304.942 1343.66 302.488 1342.81 L302.488 1338.29 Q304.432 1339.43 306.747 1340 Q309.062 1340.58 311.585 1340.58 Q315.983 1340.58 318.275 1338.85 Q320.59 1337.11 320.59 1333.8 Q320.59 1330.75 318.437 1329.03 Q316.307 1327.3 312.488 1327.3 L308.46 1327.3 L308.46 1323.45 L312.673 1323.45 Q316.122 1323.45 317.951 1322.09 Q319.779 1320.7 319.779 1318.11 Q319.779 1315.44 317.881 1314.03 Q316.006 1312.6 312.488 1312.6 Q310.566 1312.6 308.367 1313.01 Q306.168 1313.43 303.529 1314.31 L303.529 1310.14 Q306.192 1309.4 308.506 1309.03 Q310.844 1308.66 312.904 1308.66 Q318.228 1308.66 321.33 1311.09 Q324.432 1313.5 324.432 1317.62 Q324.432 1320.49 322.789 1322.48 Q321.145 1324.45 318.113 1325.21 Z" fill="#000000" fill-rule="nonzero" fill-opacity="1" /><path clip-path="url(#clip960)" d="M338.136 1339.91 L354.455 1339.91 L354.455 1343.85 L332.511 1343.85 L332.511 1339.91 Q335.173 1337.16 339.756 1332.53 Q344.363 1327.88 345.543 1326.53 Q347.789 1324.01 348.668 1322.27 Q349.571 1320.51 349.571 1318.82 Q349.571 1316.07 347.626 1314.33 Q345.705 1312.6 342.603 1312.6 Q340.404 1312.6 337.951 1313.36 Q335.52 1314.13 332.742 1315.68 L332.742 1310.95 Q335.566 1309.82 338.02 1309.24 Q340.474 1308.66 342.511 1308.66 Q347.881 1308.66 351.076 1311.35 Q354.27 1314.03 354.27 1318.52 Q354.27 1320.65 353.46 1322.57 Q352.673 1324.47 350.566 1327.07 Q349.988 1327.74 346.886 1330.95 Q343.784 1334.15 338.136 1339.91 Z" fill="#000000" fill-rule="nonzero" fill-opacity="1" /><path clip-path="url(#clip960)" d="M382.95 1310.56 L382.95 1317.92 L391.723 1317.92 L391.723 1321.23 L382.95 1321.23 L382.95 1335.31 Q382.95 1338.48 383.807 1339.38 Q384.686 1340.28 387.348 1340.28 L391.723 1340.28 L391.723 1343.85 L387.348 1343.85 Q382.418 1343.85 380.543 1342.02 Q378.668 1340.17 378.668 1335.31 L378.668 1321.23 L375.543 1321.23 L375.543 1317.92 L378.668 1317.92 L378.668 1310.56 L382.95 1310.56 Z" fill="#000000" fill-rule="nonzero" fill-opacity="1" /><path clip-path="url(#clip960)" d="M407.372 1320.91 Q403.946 1320.91 401.955 1323.59 Q399.964 1326.26 399.964 1330.91 Q399.964 1335.56 401.932 1338.25 Q403.922 1340.91 407.372 1340.91 Q410.774 1340.91 412.765 1338.22 Q414.756 1335.54 414.756 1330.91 Q414.756 1326.3 412.765 1323.62 Q410.774 1320.91 407.372 1320.91 M407.372 1317.3 Q412.927 1317.3 416.098 1320.91 Q419.27 1324.52 419.27 1330.91 Q419.27 1337.27 416.098 1340.91 Q412.927 1344.52 407.372 1344.52 Q401.793 1344.52 398.622 1340.91 Q395.473 1337.27 395.473 1330.91 Q395.473 1324.52 398.622 1320.91 Q401.793 1317.3 407.372 1317.3 Z" fill="#000000" fill-rule="nonzero" fill-opacity="1" /><path clip-path="url(#clip960)" d="M442.811 1339.91 L450.45 1339.91 L450.45 1313.55 L442.14 1315.21 L442.14 1310.95 L450.404 1309.29 L455.08 1309.29 L455.08 1339.91 L462.718 1339.91 L462.718 1343.85 L442.811 1343.85 L442.811 1339.91 Z" fill="#000000" fill-rule="nonzero" fill-opacity="1" /><path clip-path="url(#clip960)" d="M482.163 1312.37 Q478.552 1312.37 476.723 1315.93 Q474.917 1319.47 474.917 1326.6 Q474.917 1333.71 476.723 1337.27 Q478.552 1340.82 482.163 1340.82 Q485.797 1340.82 487.603 1337.27 Q489.431 1333.71 489.431 1326.6 Q489.431 1319.47 487.603 1315.93 Q485.797 1312.37 482.163 1312.37 M482.163 1308.66 Q487.973 1308.66 491.028 1313.27 Q494.107 1317.85 494.107 1326.6 Q494.107 1335.33 491.028 1339.94 Q487.973 1344.52 482.163 1344.52 Q476.353 1344.52 473.274 1339.94 Q470.218 1335.33 470.218 1326.6 Q470.218 1317.85 473.274 1313.27 Q476.353 1308.66 482.163 1308.66 Z" fill="#000000" fill-rule="nonzero" fill-opacity="1" /><path clip-path="url(#clip960)" d="M512.325 1312.37 Q508.714 1312.37 506.885 1315.93 Q505.079 1319.47 505.079 1326.6 Q505.079 1333.71 506.885 1337.27 Q508.714 1340.82 512.325 1340.82 Q515.959 1340.82 517.764 1337.27 Q519.593 1333.71 519.593 1326.6 Q519.593 1319.47 517.764 1315.93 Q515.959 1312.37 512.325 1312.37 M512.325 1308.66 Q518.135 1308.66 521.19 1313.27 Q524.269 1317.85 524.269 1326.6 Q524.269 1335.33 521.19 1339.94 Q518.135 1344.52 512.325 1344.52 Q506.515 1344.52 503.436 1339.94 Q500.38 1335.33 500.38 1326.6 Q500.38 1317.85 503.436 1313.27 Q506.515 1308.66 512.325 1308.66 Z" fill="#000000" fill-rule="nonzero" fill-opacity="1" /><path clip-path="url(#clip960)" d="M725.198 1339.91 L732.837 1339.91 L732.837 1313.55 L724.527 1315.21 L724.527 1310.95 L732.791 1309.29 L737.467 1309.29 L737.467 1339.91 L745.106 1339.91 L745.106 1343.85 L725.198 1343.85 L725.198 1339.91 Z" fill="#000000" fill-rule="nonzero" fill-opacity="1" /><path clip-path="url(#clip960)" d="M764.55 1312.37 Q760.939 1312.37 759.11 1315.93 Q757.305 1319.47 757.305 1326.6 Q757.305 1333.71 759.11 1337.27 Q760.939 1340.82 764.55 1340.82 Q768.184 1340.82 769.99 1337.27 Q771.819 1333.71 771.819 1326.6 Q771.819 1319.47 769.99 1315.93 Q768.184 1312.37 764.55 1312.37 M764.55 1308.66 Q770.36 1308.66 773.416 1313.27 Q776.494 1317.85 776.494 1326.6 Q776.494 1335.33 773.416 1339.94 Q770.36 1344.52 764.55 1344.52 Q758.74 1344.52 755.661 1339.94 Q752.606 1335.33 752.606 1326.6 Q752.606 1317.85 755.661 1313.27 Q758.74 1308.66 764.55 1308.66 Z" fill="#000000" fill-rule="nonzero" fill-opacity="1" /><path clip-path="url(#clip960)" d="M785.522 1339.91 L793.161 1339.91 L793.161 1313.55 L784.851 1315.21 L784.851 1310.95 L793.115 1309.29 L797.791 1309.29 L797.791 1339.91 L805.429 1339.91 L805.429 1343.85 L785.522 1343.85 L785.522 1339.91 Z" fill="#000000" fill-rule="nonzero" fill-opacity="1" /><path clip-path="url(#clip960)" d="M833.554 1310.56 L833.554 1317.92 L842.327 1317.92 L842.327 1321.23 L833.554 1321.23 L833.554 1335.31 Q833.554 1338.48 834.411 1339.38 Q835.29 1340.28 837.952 1340.28 L842.327 1340.28 L842.327 1343.85 L837.952 1343.85 Q833.022 1343.85 831.147 1342.02 Q829.272 1340.17 829.272 1335.31 L829.272 1321.23 L826.147 1321.23 L826.147 1317.92 L829.272 1317.92 L829.272 1310.56 L833.554 1310.56 Z" fill="#000000" fill-rule="nonzero" fill-opacity="1" /><path clip-path="url(#clip960)" d="M857.976 1320.91 Q854.55 1320.91 852.559 1323.59 Q850.568 1326.26 850.568 1330.91 Q850.568 1335.56 852.536 1338.25 Q854.526 1340.91 857.976 1340.91 Q861.378 1340.91 863.369 1338.22 Q865.36 1335.54 865.36 1330.91 Q865.36 1326.3 863.369 1323.62 Q861.378 1320.91 857.976 1320.91 M857.976 1317.3 Q863.531 1317.3 866.702 1320.91 Q869.874 1324.52 869.874 1330.91 Q869.874 1337.27 866.702 1340.91 Q863.531 1344.52 857.976 1344.52 Q852.397 1344.52 849.226 1340.91 Q846.077 1337.27 846.077 1330.91 Q846.077 1324.52 849.226 1320.91 Q852.397 1317.3 857.976 1317.3 Z" fill="#000000" fill-rule="nonzero" fill-opacity="1" /><path clip-path="url(#clip960)" d="M896.633 1339.91 L912.952 1339.91 L912.952 1343.85 L891.008 1343.85 L891.008 1339.91 Q893.67 1337.16 898.253 1332.53 Q902.86 1327.88 904.04 1326.53 Q906.285 1324.01 907.165 1322.27 Q908.068 1320.51 908.068 1318.82 Q908.068 1316.07 906.123 1314.33 Q904.202 1312.6 901.1 1312.6 Q898.901 1312.6 896.448 1313.36 Q894.017 1314.13 891.239 1315.68 L891.239 1310.95 Q894.063 1309.82 896.517 1309.24 Q898.971 1308.66 901.008 1308.66 Q906.378 1308.66 909.572 1311.35 Q912.767 1314.03 912.767 1318.52 Q912.767 1320.65 911.957 1322.57 Q911.17 1324.47 909.063 1327.07 Q908.484 1327.74 905.383 1330.95 Q902.281 1334.15 896.633 1339.91 Z" fill="#000000" fill-rule="nonzero" fill-opacity="1" /><path clip-path="url(#clip960)" d="M932.767 1312.37 Q929.156 1312.37 927.327 1315.93 Q925.521 1319.47 925.521 1326.6 Q925.521 1333.71 927.327 1337.27 Q929.156 1340.82 932.767 1340.82 Q936.401 1340.82 938.207 1337.27 Q940.035 1333.71 940.035 1326.6 Q940.035 1319.47 938.207 1315.93 Q936.401 1312.37 932.767 1312.37 M932.767 1308.66 Q938.577 1308.66 941.632 1313.27 Q944.711 1317.85 944.711 1326.6 Q944.711 1335.33 941.632 1339.94 Q938.577 1344.52 932.767 1344.52 Q926.957 1344.52 923.878 1339.94 Q920.822 1335.33 920.822 1326.6 Q920.822 1317.85 923.878 1313.27 Q926.957 1308.66 932.767 1308.66 Z" fill="#000000" fill-rule="nonzero" fill-opacity="1" /><path clip-path="url(#clip960)" d="M962.929 1312.37 Q959.318 1312.37 957.489 1315.93 Q955.683 1319.47 955.683 1326.6 Q955.683 1333.71 957.489 1337.27 Q959.318 1340.82 962.929 1340.82 Q966.563 1340.82 968.368 1337.27 Q970.197 1333.71 970.197 1326.6 Q970.197 1319.47 968.368 1315.93 Q966.563 1312.37 962.929 1312.37 M962.929 1308.66 Q968.739 1308.66 971.794 1313.27 Q974.873 1317.85 974.873 1326.6 Q974.873 1335.33 971.794 1339.94 Q968.739 1344.52 962.929 1344.52 Q957.118 1344.52 954.04 1339.94 Q950.984 1335.33 950.984 1326.6 Q950.984 1317.85 954.04 1313.27 Q957.118 1308.66 962.929 1308.66 Z" fill="#000000" fill-rule="nonzero" fill-opacity="1" /><path clip-path="url(#clip960)" d="M1165.61 1339.91 L1181.93 1339.91 L1181.93 1343.85 L1159.98 1343.85 L1159.98 1339.91 Q1162.64 1337.16 1167.23 1332.53 Q1171.83 1327.88 1173.01 1326.53 Q1175.26 1324.01 1176.14 1322.27 Q1177.04 1320.51 1177.04 1318.82 Q1177.04 1316.07 1175.1 1314.33 Q1173.18 1312.6 1170.07 1312.6 Q1167.87 1312.6 1165.42 1313.36 Q1162.99 1314.13 1160.21 1315.68 L1160.21 1310.95 Q1163.04 1309.82 1165.49 1309.24 Q1167.94 1308.66 1169.98 1308.66 Q1175.35 1308.66 1178.55 1311.35 Q1181.74 1314.03 1181.74 1318.52 Q1181.74 1320.65 1180.93 1322.57 Q1180.14 1324.47 1178.04 1327.07 Q1177.46 1327.74 1174.36 1330.95 Q1171.25 1334.15 1165.61 1339.91 Z" fill="#000000" fill-rule="nonzero" fill-opacity="1" /><path clip-path="url(#clip960)" d="M1201.74 1312.37 Q1198.13 1312.37 1196.3 1315.93 Q1194.49 1319.47 1194.49 1326.6 Q1194.49 1333.71 1196.3 1337.27 Q1198.13 1340.82 1201.74 1340.82 Q1205.37 1340.82 1207.18 1337.27 Q1209.01 1333.71 1209.01 1326.6 Q1209.01 1319.47 1207.18 1315.93 Q1205.37 1312.37 1201.74 1312.37 M1201.74 1308.66 Q1207.55 1308.66 1210.61 1313.27 Q1213.68 1317.85 1213.68 1326.6 Q1213.68 1335.33 1210.61 1339.94 Q1207.55 1344.52 1201.74 1344.52 Q1195.93 1344.52 1192.85 1339.94 Q1189.8 1335.33 1189.8 1326.6 Q1189.8 1317.85 1192.85 1313.27 Q1195.93 1308.66 1201.74 1308.66 Z" fill="#000000" fill-rule="nonzero" fill-opacity="1" /><path clip-path="url(#clip960)" d="M1222.71 1339.91 L1230.35 1339.91 L1230.35 1313.55 L1222.04 1315.21 L1222.04 1310.95 L1230.3 1309.29 L1234.98 1309.29 L1234.98 1339.91 L1242.62 1339.91 L1242.62 1343.85 L1222.71 1343.85 L1222.71 1339.91 Z" fill="#000000" fill-rule="nonzero" fill-opacity="1" /><path clip-path="url(#clip960)" d="M1270.74 1310.56 L1270.74 1317.92 L1279.52 1317.92 L1279.52 1321.23 L1270.74 1321.23 L1270.74 1335.31 Q1270.74 1338.48 1271.6 1339.38 Q1272.48 1340.28 1275.14 1340.28 L1279.52 1340.28 L1279.52 1343.85 L1275.14 1343.85 Q1270.21 1343.85 1268.34 1342.02 Q1266.46 1340.17 1266.46 1335.31 L1266.46 1321.23 L1263.34 1321.23 L1263.34 1317.92 L1266.46 1317.92 L1266.46 1310.56 L1270.74 1310.56 Z" fill="#000000" fill-rule="nonzero" fill-opacity="1" /><path clip-path="url(#clip960)" d="M1295.17 1320.91 Q1291.74 1320.91 1289.75 1323.59 Q1287.76 1326.26 1287.76 1330.91 Q1287.76 1335.56 1289.73 1338.25 Q1291.72 1340.91 1295.17 1340.91 Q1298.57 1340.91 1300.56 1338.22 Q1302.55 1335.54 1302.55 1330.91 Q1302.55 1326.3 1300.56 1323.62 Q1298.57 1320.91 1295.17 1320.91 M1295.17 1317.3 Q1300.72 1317.3 1303.89 1320.91 Q1307.06 1324.52 1307.06 1330.91 Q1307.06 1337.27 1303.89 1340.91 Q1300.72 1344.52 1295.17 1344.52 Q1289.59 1344.52 1286.42 1340.91 Q1283.27 1337.27 1283.27 1330.91 Q1283.27 1324.52 1286.42 1320.91 Q1289.59 1317.3 1295.17 1317.3 Z" fill="#000000" fill-rule="nonzero" fill-opacity="1" /><path clip-path="url(#clip960)" d="M1343.96 1325.21 Q1347.32 1325.93 1349.19 1328.2 Q1351.09 1330.47 1351.09 1333.8 Q1351.09 1338.92 1347.57 1341.72 Q1344.05 1344.52 1337.57 1344.52 Q1335.4 1344.52 1333.08 1344.08 Q1330.79 1343.66 1328.34 1342.81 L1328.34 1338.29 Q1330.28 1339.43 1332.6 1340 Q1334.91 1340.58 1337.43 1340.58 Q1341.83 1340.58 1344.12 1338.85 Q1346.44 1337.11 1346.44 1333.8 Q1346.44 1330.75 1344.29 1329.03 Q1342.16 1327.3 1338.34 1327.3 L1334.31 1327.3 L1334.31 1323.45 L1338.52 1323.45 Q1341.97 1323.45 1343.8 1322.09 Q1345.63 1320.7 1345.63 1318.11 Q1345.63 1315.44 1343.73 1314.03 Q1341.85 1312.6 1338.34 1312.6 Q1336.41 1312.6 1334.22 1313.01 Q1332.02 1313.43 1329.38 1314.31 L1329.38 1310.14 Q1332.04 1309.4 1334.35 1309.03 Q1336.69 1308.66 1338.75 1308.66 Q1344.08 1308.66 1347.18 1311.09 Q1350.28 1313.5 1350.28 1317.62 Q1350.28 1320.49 1348.64 1322.48 Q1346.99 1324.45 1343.96 1325.21 Z" fill="#000000" fill-rule="nonzero" fill-opacity="1" /><path clip-path="url(#clip960)" d="M1369.96 1312.37 Q1366.35 1312.37 1364.52 1315.93 Q1362.71 1319.47 1362.71 1326.6 Q1362.71 1333.71 1364.52 1337.27 Q1366.35 1340.82 1369.96 1340.82 Q1373.59 1340.82 1375.4 1337.27 Q1377.22 1333.71 1377.22 1326.6 Q1377.22 1319.47 1375.4 1315.93 Q1373.59 1312.37 1369.96 1312.37 M1369.96 1308.66 Q1375.77 1308.66 1378.82 1313.27 Q1381.9 1317.85 1381.9 1326.6 Q1381.9 1335.33 1378.82 1339.94 Q1375.77 1344.52 1369.96 1344.52 Q1364.15 1344.52 1361.07 1339.94 Q1358.01 1335.33 1358.01 1326.6 Q1358.01 1317.85 1361.07 1313.27 Q1364.15 1308.66 1369.96 1308.66 Z" fill="#000000" fill-rule="nonzero" fill-opacity="1" /><path clip-path="url(#clip960)" d="M1400.12 1312.37 Q1396.51 1312.37 1394.68 1315.93 Q1392.87 1319.47 1392.87 1326.6 Q1392.87 1333.71 1394.68 1337.27 Q1396.51 1340.82 1400.12 1340.82 Q1403.75 1340.82 1405.56 1337.27 Q1407.39 1333.71 1407.39 1326.6 Q1407.39 1319.47 1405.56 1315.93 Q1403.75 1312.37 1400.12 1312.37 M1400.12 1308.66 Q1405.93 1308.66 1408.98 1313.27 Q1412.06 1317.85 1412.06 1326.6 Q1412.06 1335.33 1408.98 1339.94 Q1405.93 1344.52 1400.12 1344.52 Q1394.31 1344.52 1391.23 1339.94 Q1388.17 1335.33 1388.17 1326.6 Q1388.17 1317.85 1391.23 1313.27 Q1394.31 1308.66 1400.12 1308.66 Z" fill="#000000" fill-rule="nonzero" fill-opacity="1" /><path clip-path="url(#clip960)" d="M1612 1325.21 Q1615.35 1325.93 1617.23 1328.2 Q1619.13 1330.47 1619.13 1333.8 Q1619.13 1338.92 1615.61 1341.72 Q1612.09 1344.52 1605.61 1344.52 Q1603.43 1344.52 1601.12 1344.08 Q1598.83 1343.66 1596.37 1342.81 L1596.37 1338.29 Q1598.32 1339.43 1600.63 1340 Q1602.95 1340.58 1605.47 1340.58 Q1609.87 1340.58 1612.16 1338.85 Q1614.47 1337.11 1614.47 1333.8 Q1614.47 1330.75 1612.32 1329.03 Q1610.19 1327.3 1606.37 1327.3 L1602.34 1327.3 L1602.34 1323.45 L1606.56 1323.45 Q1610.01 1323.45 1611.83 1322.09 Q1613.66 1320.7 1613.66 1318.11 Q1613.66 1315.44 1611.77 1314.03 Q1609.89 1312.6 1606.37 1312.6 Q1604.45 1312.6 1602.25 1313.01 Q1600.05 1313.43 1597.41 1314.31 L1597.41 1310.14 Q1600.08 1309.4 1602.39 1309.03 Q1604.73 1308.66 1606.79 1308.66 Q1612.11 1308.66 1615.21 1311.09 Q1618.32 1313.5 1618.32 1317.62 Q1618.32 1320.49 1616.67 1322.48 Q1615.03 1324.45 1612 1325.21 Z" fill="#000000" fill-rule="nonzero" fill-opacity="1" /><path clip-path="url(#clip960)" d="M1637.99 1312.37 Q1634.38 1312.37 1632.55 1315.93 Q1630.75 1319.47 1630.75 1326.6 Q1630.75 1333.71 1632.55 1337.27 Q1634.38 1340.82 1637.99 1340.82 Q1641.63 1340.82 1643.43 1337.27 Q1645.26 1333.71 1645.26 1326.6 Q1645.26 1319.47 1643.43 1315.93 Q1641.63 1312.37 1637.99 1312.37 M1637.99 1308.66 Q1643.8 1308.66 1646.86 1313.27 Q1649.94 1317.85 1649.94 1326.6 Q1649.94 1335.33 1646.86 1339.94 Q1643.8 1344.52 1637.99 1344.52 Q1632.18 1344.52 1629.1 1339.94 Q1626.05 1335.33 1626.05 1326.6 Q1626.05 1317.85 1629.1 1313.27 Q1632.18 1308.66 1637.99 1308.66 Z" fill="#000000" fill-rule="nonzero" fill-opacity="1" /><path clip-path="url(#clip960)" d="M1658.96 1339.91 L1666.6 1339.91 L1666.6 1313.55 L1658.29 1315.21 L1658.29 1310.95 L1666.56 1309.29 L1671.23 1309.29 L1671.23 1339.91 L1678.87 1339.91 L1678.87 1343.85 L1658.96 1343.85 L1658.96 1339.91 Z" fill="#000000" fill-rule="nonzero" fill-opacity="1" /><path clip-path="url(#clip960)" d="M1707 1310.56 L1707 1317.92 L1715.77 1317.92 L1715.77 1321.23 L1707 1321.23 L1707 1335.31 Q1707 1338.48 1707.85 1339.38 Q1708.73 1340.28 1711.39 1340.28 L1715.77 1340.28 L1715.77 1343.85 L1711.39 1343.85 Q1706.46 1343.85 1704.59 1342.02 Q1702.71 1340.17 1702.71 1335.31 L1702.71 1321.23 L1699.59 1321.23 L1699.59 1317.92 L1702.71 1317.92 L1702.71 1310.56 L1707 1310.56 Z" fill="#000000" fill-rule="nonzero" fill-opacity="1" /><path clip-path="url(#clip960)" d="M1731.42 1320.91 Q1727.99 1320.91 1726 1323.59 Q1724.01 1326.26 1724.01 1330.91 Q1724.01 1335.56 1725.98 1338.25 Q1727.97 1340.91 1731.42 1340.91 Q1734.82 1340.91 1736.81 1338.22 Q1738.8 1335.54 1738.8 1330.91 Q1738.8 1326.3 1736.81 1323.62 Q1734.82 1320.91 1731.42 1320.91 M1731.42 1317.3 Q1736.97 1317.3 1740.14 1320.91 Q1743.32 1324.52 1743.32 1330.91 Q1743.32 1337.27 1740.14 1340.91 Q1736.97 1344.52 1731.42 1344.52 Q1725.84 1344.52 1722.67 1340.91 Q1719.52 1337.27 1719.52 1330.91 Q1719.52 1324.52 1722.67 1320.91 Q1725.84 1317.3 1731.42 1317.3 Z" fill="#000000" fill-rule="nonzero" fill-opacity="1" /><path clip-path="url(#clip960)" d="M1778.89 1313.36 L1767.09 1331.81 L1778.89 1331.81 L1778.89 1313.36 M1777.67 1309.29 L1783.55 1309.29 L1783.55 1331.81 L1788.48 1331.81 L1788.48 1335.7 L1783.55 1335.7 L1783.55 1343.85 L1778.89 1343.85 L1778.89 1335.7 L1763.29 1335.7 L1763.29 1331.19 L1777.67 1309.29 Z" fill="#000000" fill-rule="nonzero" fill-opacity="1" /><path clip-path="url(#clip960)" d="M1806.21 1312.37 Q1802.6 1312.37 1800.77 1315.93 Q1798.96 1319.47 1798.96 1326.6 Q1798.96 1333.71 1800.77 1337.27 Q1802.6 1340.82 1806.21 1340.82 Q1809.84 1340.82 1811.65 1337.27 Q1813.48 1333.71 1813.48 1326.6 Q1813.48 1319.47 1811.65 1315.93 Q1809.84 1312.37 1806.21 1312.37 M1806.21 1308.66 Q1812.02 1308.66 1815.07 1313.27 Q1818.15 1317.85 1818.15 1326.6 Q1818.15 1335.33 1815.07 1339.94 Q1812.02 1344.52 1806.21 1344.52 Q1800.4 1344.52 1797.32 1339.94 Q1794.26 1335.33 1794.26 1326.6 Q1794.26 1317.85 1797.32 1313.27 Q1800.4 1308.66 1806.21 1308.66 Z" fill="#000000" fill-rule="nonzero" fill-opacity="1" /><path clip-path="url(#clip960)" d="M1836.37 1312.37 Q1832.76 1312.37 1830.93 1315.93 Q1829.13 1319.47 1829.13 1326.6 Q1829.13 1333.71 1830.93 1337.27 Q1832.76 1340.82 1836.37 1340.82 Q1840 1340.82 1841.81 1337.27 Q1843.64 1333.71 1843.64 1326.6 Q1843.64 1319.47 1841.81 1315.93 Q1840 1312.37 1836.37 1312.37 M1836.37 1308.66 Q1842.18 1308.66 1845.24 1313.27 Q1848.31 1317.85 1848.31 1326.6 Q1848.31 1335.33 1845.24 1339.94 Q1842.18 1344.52 1836.37 1344.52 Q1830.56 1344.52 1827.48 1339.94 Q1824.43 1335.33 1824.43 1326.6 Q1824.43 1317.85 1827.48 1313.27 Q1830.56 1308.66 1836.37 1308.66 Z" fill="#000000" fill-rule="nonzero" fill-opacity="1" /><path clip-path="url(#clip960)" d="M2047.65 1313.36 L2035.84 1331.81 L2047.65 1331.81 L2047.65 1313.36 M2046.42 1309.29 L2052.3 1309.29 L2052.3 1331.81 L2057.23 1331.81 L2057.23 1335.7 L2052.3 1335.7 L2052.3 1343.85 L2047.65 1343.85 L2047.65 1335.7 L2032.05 1335.7 L2032.05 1331.19 L2046.42 1309.29 Z" fill="#000000" fill-rule="nonzero" fill-opacity="1" /><path clip-path="url(#clip960)" d="M2074.96 1312.37 Q2071.35 1312.37 2069.52 1315.93 Q2067.72 1319.47 2067.72 1326.6 Q2067.72 1333.71 2069.52 1337.27 Q2071.35 1340.82 2074.96 1340.82 Q2078.6 1340.82 2080.4 1337.27 Q2082.23 1333.71 2082.23 1326.6 Q2082.23 1319.47 2080.4 1315.93 Q2078.6 1312.37 2074.96 1312.37 M2074.96 1308.66 Q2080.77 1308.66 2083.83 1313.27 Q2086.91 1317.85 2086.91 1326.6 Q2086.91 1335.33 2083.83 1339.94 Q2080.77 1344.52 2074.96 1344.52 Q2069.15 1344.52 2066.07 1339.94 Q2063.02 1335.33 2063.02 1326.6 Q2063.02 1317.85 2066.07 1313.27 Q2069.15 1308.66 2074.96 1308.66 Z" fill="#000000" fill-rule="nonzero" fill-opacity="1" /><path clip-path="url(#clip960)" d="M2095.93 1339.91 L2103.57 1339.91 L2103.57 1313.55 L2095.26 1315.21 L2095.26 1310.95 L2103.53 1309.29 L2108.2 1309.29 L2108.2 1339.91 L2115.84 1339.91 L2115.84 1343.85 L2095.93 1343.85 L2095.93 1339.91 Z" fill="#000000" fill-rule="nonzero" fill-opacity="1" /><path clip-path="url(#clip960)" d="M2143.97 1310.56 L2143.97 1317.92 L2152.74 1317.92 L2152.74 1321.23 L2143.97 1321.23 L2143.97 1335.31 Q2143.97 1338.48 2144.82 1339.38 Q2145.7 1340.28 2148.36 1340.28 L2152.74 1340.28 L2152.74 1343.85 L2148.36 1343.85 Q2143.43 1343.85 2141.56 1342.02 Q2139.68 1340.17 2139.68 1335.31 L2139.68 1321.23 L2136.56 1321.23 L2136.56 1317.92 L2139.68 1317.92 L2139.68 1310.56 L2143.97 1310.56 Z" fill="#000000" fill-rule="nonzero" fill-opacity="1" /><path clip-path="url(#clip960)" d="M2168.39 1320.91 Q2164.96 1320.91 2162.97 1323.59 Q2160.98 1326.26 2160.98 1330.91 Q2160.98 1335.56 2162.95 1338.25 Q2164.94 1340.91 2168.39 1340.91 Q2171.79 1340.91 2173.78 1338.22 Q2175.77 1335.54 2175.77 1330.91 Q2175.77 1326.3 2173.78 1323.62 Q2171.79 1320.91 2168.39 1320.91 M2168.39 1317.3 Q2173.94 1317.3 2177.11 1320.91 Q2180.29 1324.52 2180.29 1330.91 Q2180.29 1337.27 2177.11 1340.91 Q2173.94 1344.52 2168.39 1344.52 Q2162.81 1344.52 2159.64 1340.91 Q2156.49 1337.27 2156.49 1330.91 Q2156.49 1324.52 2159.64 1320.91 Q2162.81 1317.3 2168.39 1317.3 Z" fill="#000000" fill-rule="nonzero" fill-opacity="1" /><path clip-path="url(#clip960)" d="M2203.06 1309.29 L2221.42 1309.29 L2221.42 1313.22 L2207.35 1313.22 L2207.35 1321.69 Q2208.36 1321.35 2209.38 1321.19 Q2210.4 1321 2211.42 1321 Q2217.21 1321 2220.59 1324.17 Q2223.97 1327.34 2223.97 1332.76 Q2223.97 1338.34 2220.49 1341.44 Q2217.02 1344.52 2210.7 1344.52 Q2208.53 1344.52 2206.26 1344.15 Q2204.01 1343.78 2201.6 1343.04 L2201.6 1338.34 Q2203.69 1339.47 2205.91 1340.03 Q2208.13 1340.58 2210.61 1340.58 Q2214.61 1340.58 2216.95 1338.48 Q2219.29 1336.37 2219.29 1332.76 Q2219.29 1329.15 2216.95 1327.04 Q2214.61 1324.94 2210.61 1324.94 Q2208.73 1324.94 2206.86 1325.35 Q2205.01 1325.77 2203.06 1326.65 L2203.06 1309.29 Z" fill="#000000" fill-rule="nonzero" fill-opacity="1" /><path clip-path="url(#clip960)" d="M2243.18 1312.37 Q2239.57 1312.37 2237.74 1315.93 Q2235.93 1319.47 2235.93 1326.6 Q2235.93 1333.71 2237.74 1337.27 Q2239.57 1340.82 2243.18 1340.82 Q2246.81 1340.82 2248.62 1337.27 Q2250.45 1333.71 2250.45 1326.6 Q2250.45 1319.47 2248.62 1315.93 Q2246.81 1312.37 2243.18 1312.37 M2243.18 1308.66 Q2248.99 1308.66 2252.04 1313.27 Q2255.12 1317.85 2255.12 1326.6 Q2255.12 1335.33 2252.04 1339.94 Q2248.99 1344.52 2243.18 1344.52 Q2237.37 1344.52 2234.29 1339.94 Q2231.23 1335.33 2231.23 1326.6 Q2231.23 1317.85 2234.29 1313.27 Q2237.37 1308.66 2243.18 1308.66 Z" fill="#000000" fill-rule="nonzero" fill-opacity="1" /><path clip-path="url(#clip960)" d="M2273.34 1312.37 Q2269.73 1312.37 2267.9 1315.93 Q2266.1 1319.47 2266.1 1326.6 Q2266.1 1333.71 2267.9 1337.27 Q2269.73 1340.82 2273.34 1340.82 Q2276.97 1340.82 2278.78 1337.27 Q2280.61 1333.71 2280.61 1326.6 Q2280.61 1319.47 2278.78 1315.93 Q2276.97 1312.37 2273.34 1312.37 M2273.34 1308.66 Q2279.15 1308.66 2282.21 1313.27 Q2285.28 1317.85 2285.28 1326.6 Q2285.28 1335.33 2282.21 1339.94 Q2279.15 1344.52 2273.34 1344.52 Q2267.53 1344.52 2264.45 1339.94 Q2261.4 1335.33 2261.4 1326.6 Q2261.4 1317.85 2264.45 1313.27 Q2267.53 1308.66 2273.34 1308.66 Z" fill="#000000" fill-rule="nonzero" fill-opacity="1" /><path clip-path="url(#clip960)" d="M1019.6 1380.35 L1019.6 1386.62 Q1015.94 1384.87 1012.69 1384.01 Q1009.45 1383.15 1006.42 1383.15 Q1001.17 1383.15 998.308 1385.19 Q995.475 1387.23 995.475 1390.98 Q995.475 1394.13 997.353 1395.76 Q999.263 1397.35 1004.55 1398.33 L1008.43 1399.13 Q1015.62 1400.5 1019.03 1403.97 Q1022.47 1407.41 1022.47 1413.2 Q1022.47 1420.1 1017.82 1423.67 Q1013.2 1427.23 1004.26 1427.23 Q1000.89 1427.23 997.066 1426.47 Q993.279 1425.71 989.205 1424.21 L989.205 1417.59 Q993.12 1419.79 996.875 1420.9 Q1000.63 1422.01 1004.26 1422.01 Q1009.77 1422.01 1012.76 1419.85 Q1015.75 1417.69 1015.75 1413.68 Q1015.75 1410.17 1013.59 1408.2 Q1011.45 1406.23 1006.55 1405.24 L1002.64 1404.48 Q995.443 1403.04 992.228 1399.99 Q989.014 1396.93 989.014 1391.49 Q989.014 1385.19 993.438 1381.56 Q997.894 1377.93 1005.69 1377.93 Q1009.03 1377.93 1012.5 1378.54 Q1015.97 1379.14 1019.6 1380.35 Z" fill="#000000" fill-rule="nonzero" fill-opacity="1" /><path clip-path="url(#clip960)" d="M1048.44 1408.39 Q1041.34 1408.39 1038.6 1410.02 Q1035.87 1411.64 1035.87 1415.55 Q1035.87 1418.67 1037.9 1420.52 Q1039.97 1422.33 1043.5 1422.33 Q1048.37 1422.33 1051.3 1418.9 Q1054.26 1415.43 1054.26 1409.7 L1054.26 1408.39 L1048.44 1408.39 M1060.12 1405.97 L1060.12 1426.31 L1054.26 1426.31 L1054.26 1420.9 Q1052.26 1424.15 1049.27 1425.71 Q1046.27 1427.23 1041.94 1427.23 Q1036.47 1427.23 1033.22 1424.18 Q1030.01 1421.09 1030.01 1415.94 Q1030.01 1409.92 1034.02 1406.86 Q1038.06 1403.81 1046.05 1403.81 L1054.26 1403.81 L1054.26 1403.24 Q1054.26 1399.19 1051.59 1397 Q1048.95 1394.77 1044.14 1394.77 Q1041.09 1394.77 1038.19 1395.5 Q1035.29 1396.23 1032.62 1397.7 L1032.62 1392.29 Q1035.83 1391.05 1038.86 1390.44 Q1041.88 1389.8 1044.75 1389.8 Q1052.48 1389.8 1056.3 1393.81 Q1060.12 1397.83 1060.12 1405.97 Z" fill="#000000" fill-rule="nonzero" fill-opacity="1" /><path clip-path="url(#clip960)" d="M1099.94 1397.51 Q1102.13 1393.56 1105.19 1391.68 Q1108.24 1389.8 1112.38 1389.8 Q1117.95 1389.8 1120.97 1393.72 Q1124 1397.6 1124 1404.8 L1124 1426.31 L1118.11 1426.31 L1118.11 1404.99 Q1118.11 1399.86 1116.3 1397.38 Q1114.48 1394.9 1110.76 1394.9 Q1106.21 1394.9 1103.56 1397.92 Q1100.92 1400.94 1100.92 1406.16 L1100.92 1426.31 L1095.03 1426.31 L1095.03 1404.99 Q1095.03 1399.83 1093.22 1397.38 Q1091.41 1394.9 1087.62 1394.9 Q1083.13 1394.9 1080.49 1397.95 Q1077.85 1400.98 1077.85 1406.16 L1077.85 1426.31 L1071.96 1426.31 L1071.96 1390.66 L1077.85 1390.66 L1077.85 1396.2 Q1079.85 1392.92 1082.65 1391.36 Q1085.45 1389.8 1089.31 1389.8 Q1093.19 1389.8 1095.89 1391.78 Q1098.63 1393.75 1099.94 1397.51 Z" fill="#000000" fill-rule="nonzero" fill-opacity="1" /><path clip-path="url(#clip960)" d="M1141.35 1420.96 L1141.35 1439.87 L1135.46 1439.87 L1135.46 1390.66 L1141.35 1390.66 L1141.35 1396.07 Q1143.19 1392.89 1145.99 1391.36 Q1148.82 1389.8 1152.74 1389.8 Q1159.23 1389.8 1163.27 1394.96 Q1167.35 1400.12 1167.35 1408.52 Q1167.35 1416.92 1163.27 1422.08 Q1159.23 1427.23 1152.74 1427.23 Q1148.82 1427.23 1145.99 1425.71 Q1143.19 1424.15 1141.35 1420.96 M1161.27 1408.52 Q1161.27 1402.06 1158.6 1398.4 Q1155.95 1394.71 1151.31 1394.71 Q1146.66 1394.71 1143.99 1398.4 Q1141.35 1402.06 1141.35 1408.52 Q1141.35 1414.98 1143.99 1418.67 Q1146.66 1422.33 1151.31 1422.33 Q1155.95 1422.33 1158.6 1418.67 Q1161.27 1414.98 1161.27 1408.52 Z" fill="#000000" fill-rule="nonzero" fill-opacity="1" /><path clip-path="url(#clip960)" d="M1177.06 1376.79 L1182.91 1376.79 L1182.91 1426.31 L1177.06 1426.31 L1177.06 1376.79 Z" fill="#000000" fill-rule="nonzero" fill-opacity="1" /><path clip-path="url(#clip960)" d="M1225.66 1407.02 L1225.66 1409.89 L1198.73 1409.89 Q1199.11 1415.94 1202.36 1419.12 Q1205.64 1422.27 1211.46 1422.27 Q1214.84 1422.27 1217.99 1421.44 Q1221.17 1420.61 1224.29 1418.96 L1224.29 1424.5 Q1221.14 1425.83 1217.83 1426.53 Q1214.52 1427.23 1211.11 1427.23 Q1202.58 1427.23 1197.59 1422.27 Q1192.62 1417.3 1192.62 1408.84 Q1192.62 1400.08 1197.33 1394.96 Q1202.07 1389.8 1210.09 1389.8 Q1217.29 1389.8 1221.46 1394.45 Q1225.66 1399.07 1225.66 1407.02 M1219.8 1405.3 Q1219.74 1400.5 1217.1 1397.63 Q1214.49 1394.77 1210.16 1394.77 Q1205.26 1394.77 1202.3 1397.54 Q1199.37 1400.31 1198.92 1405.34 L1219.8 1405.3 Z" fill="#000000" fill-rule="nonzero" fill-opacity="1" /><path clip-path="url(#clip960)" d="M1278.72 1391.71 L1278.72 1397.25 Q1276.23 1395.98 1273.56 1395.34 Q1270.89 1394.71 1268.02 1394.71 Q1263.66 1394.71 1261.47 1396.04 Q1259.3 1397.38 1259.3 1400.05 Q1259.3 1402.09 1260.86 1403.27 Q1262.42 1404.41 1267.13 1405.46 L1269.14 1405.91 Q1275.38 1407.25 1277.99 1409.7 Q1280.63 1412.12 1280.63 1416.48 Q1280.63 1421.44 1276.68 1424.34 Q1272.77 1427.23 1265.89 1427.23 Q1263.03 1427.23 1259.91 1426.66 Q1256.82 1426.12 1253.38 1425.01 L1253.38 1418.96 Q1256.63 1420.65 1259.78 1421.51 Q1262.93 1422.33 1266.02 1422.33 Q1270.16 1422.33 1272.38 1420.93 Q1274.61 1419.5 1274.61 1416.92 Q1274.61 1414.54 1272.99 1413.26 Q1271.4 1411.99 1265.95 1410.81 L1263.92 1410.33 Q1258.47 1409.19 1256.06 1406.83 Q1253.64 1404.45 1253.64 1400.31 Q1253.64 1395.28 1257.2 1392.54 Q1260.77 1389.8 1267.32 1389.8 Q1270.57 1389.8 1273.43 1390.28 Q1276.3 1390.76 1278.72 1391.71 Z" fill="#000000" fill-rule="nonzero" fill-opacity="1" /><path clip-path="url(#clip960)" d="M1289.95 1390.66 L1295.81 1390.66 L1295.81 1426.31 L1289.95 1426.31 L1289.95 1390.66 M1289.95 1376.79 L1295.81 1376.79 L1295.81 1384.2 L1289.95 1384.2 L1289.95 1376.79 Z" fill="#000000" fill-rule="nonzero" fill-opacity="1" /><path clip-path="url(#clip960)" d="M1305.52 1390.66 L1333.33 1390.66 L1333.33 1396.01 L1311.31 1421.63 L1333.33 1421.63 L1333.33 1426.31 L1304.72 1426.31 L1304.72 1420.96 L1326.75 1395.34 L1305.52 1395.34 L1305.52 1390.66 Z" fill="#000000" fill-rule="nonzero" fill-opacity="1" /><path clip-path="url(#clip960)" d="M1372.77 1407.02 L1372.77 1409.89 L1345.84 1409.89 Q1346.23 1415.94 1349.47 1419.12 Q1352.75 1422.27 1358.57 1422.27 Q1361.95 1422.27 1365.1 1421.44 Q1368.28 1420.61 1371.4 1418.96 L1371.4 1424.5 Q1368.25 1425.83 1364.94 1426.53 Q1361.63 1427.23 1358.22 1427.23 Q1349.69 1427.23 1344.7 1422.27 Q1339.73 1417.3 1339.73 1408.84 Q1339.73 1400.08 1344.44 1394.96 Q1349.19 1389.8 1357.21 1389.8 Q1364.4 1389.8 1368.57 1394.45 Q1372.77 1399.07 1372.77 1407.02 M1366.91 1405.3 Q1366.85 1400.5 1364.21 1397.63 Q1361.6 1394.77 1357.27 1394.77 Q1352.37 1394.77 1349.41 1397.54 Q1346.48 1400.31 1346.03 1405.34 L1366.91 1405.3 Z" fill="#000000" fill-rule="nonzero" fill-opacity="1" /><path clip-path="url(#clip960)" d="M1423.76 1396.14 Q1422.77 1395.57 1421.6 1395.31 Q1420.45 1395.02 1419.05 1395.02 Q1414.08 1395.02 1411.41 1398.27 Q1408.77 1401.49 1408.77 1407.53 L1408.77 1426.31 L1402.88 1426.31 L1402.88 1390.66 L1408.77 1390.66 L1408.77 1396.2 Q1410.61 1392.96 1413.57 1391.4 Q1416.53 1389.8 1420.77 1389.8 Q1421.37 1389.8 1422.1 1389.9 Q1422.84 1389.96 1423.73 1390.12 L1423.76 1396.14 Z" fill="#000000" fill-rule="nonzero" fill-opacity="1" /><path clip-path="url(#clip960)" d="M1446.1 1408.39 Q1439.01 1408.39 1436.27 1410.02 Q1433.53 1411.64 1433.53 1415.55 Q1433.53 1418.67 1435.57 1420.52 Q1437.64 1422.33 1441.17 1422.33 Q1446.04 1422.33 1448.97 1418.9 Q1451.93 1415.43 1451.93 1409.7 L1451.93 1408.39 L1446.1 1408.39 M1457.78 1405.97 L1457.78 1426.31 L1451.93 1426.31 L1451.93 1420.9 Q1449.92 1424.15 1446.93 1425.71 Q1443.94 1427.23 1439.61 1427.23 Q1434.14 1427.23 1430.89 1424.18 Q1427.67 1421.09 1427.67 1415.94 Q1427.67 1409.92 1431.69 1406.86 Q1435.73 1403.81 1443.72 1403.81 L1451.93 1403.81 L1451.93 1403.24 Q1451.93 1399.19 1449.25 1397 Q1446.61 1394.77 1441.81 1394.77 Q1438.75 1394.77 1435.85 1395.5 Q1432.96 1396.23 1430.28 1397.7 L1430.28 1392.29 Q1433.5 1391.05 1436.52 1390.44 Q1439.55 1389.8 1442.41 1389.8 Q1450.15 1389.8 1453.96 1393.81 Q1457.78 1397.83 1457.78 1405.97 Z" fill="#000000" fill-rule="nonzero" fill-opacity="1" /><path clip-path="url(#clip960)" d="M1499.48 1404.8 L1499.48 1426.31 L1493.62 1426.31 L1493.62 1404.99 Q1493.62 1399.93 1491.65 1397.41 Q1489.68 1394.9 1485.73 1394.9 Q1480.99 1394.9 1478.25 1397.92 Q1475.51 1400.94 1475.51 1406.16 L1475.51 1426.31 L1469.62 1426.31 L1469.62 1390.66 L1475.51 1390.66 L1475.51 1396.2 Q1477.61 1392.99 1480.45 1391.4 Q1483.31 1389.8 1487.03 1389.8 Q1493.18 1389.8 1496.33 1393.62 Q1499.48 1397.41 1499.48 1404.8 Z" fill="#000000" fill-rule="nonzero" fill-opacity="1" /><path clip-path="url(#clip960)" d="M1534.62 1408.07 Q1534.62 1401.71 1531.98 1398.21 Q1529.37 1394.71 1524.62 1394.71 Q1519.91 1394.71 1517.27 1398.21 Q1514.66 1401.71 1514.66 1408.07 Q1514.66 1414.41 1517.27 1417.91 Q1519.91 1421.41 1524.62 1421.41 Q1529.37 1421.41 1531.98 1417.91 Q1534.62 1414.41 1534.62 1408.07 M1540.47 1421.89 Q1540.47 1430.99 1536.43 1435.41 Q1532.39 1439.87 1524.05 1439.87 Q1520.96 1439.87 1518.23 1439.39 Q1515.49 1438.95 1512.91 1437.99 L1512.91 1432.3 Q1515.49 1433.7 1518 1434.36 Q1520.52 1435.03 1523.13 1435.03 Q1528.89 1435.03 1531.75 1432.01 Q1534.62 1429.02 1534.62 1422.94 L1534.62 1420.04 Q1532.8 1423.19 1529.97 1424.75 Q1527.14 1426.31 1523.19 1426.31 Q1516.64 1426.31 1512.62 1421.31 Q1508.61 1416.32 1508.61 1408.07 Q1508.61 1399.8 1512.62 1394.8 Q1516.64 1389.8 1523.19 1389.8 Q1527.14 1389.8 1529.97 1391.36 Q1532.8 1392.92 1534.62 1396.07 L1534.62 1390.66 L1540.47 1390.66 L1540.47 1421.89 Z" fill="#000000" fill-rule="nonzero" fill-opacity="1" /><path clip-path="url(#clip960)" d="M1583.03 1407.02 L1583.03 1409.89 L1556.1 1409.89 Q1556.48 1415.94 1559.73 1419.12 Q1563.01 1422.27 1568.83 1422.27 Q1572.21 1422.27 1575.36 1421.44 Q1578.54 1420.61 1581.66 1418.96 L1581.66 1424.5 Q1578.51 1425.83 1575.2 1426.53 Q1571.89 1427.23 1568.48 1427.23 Q1559.95 1427.23 1554.96 1422.27 Q1549.99 1417.3 1549.99 1408.84 Q1549.99 1400.08 1554.7 1394.96 Q1559.44 1389.8 1567.47 1389.8 Q1574.66 1389.8 1578.83 1394.45 Q1583.03 1399.07 1583.03 1407.02 M1577.17 1405.3 Q1577.11 1400.5 1574.47 1397.63 Q1571.86 1394.77 1567.53 1394.77 Q1562.63 1394.77 1559.67 1397.54 Q1556.74 1400.31 1556.29 1405.34 L1577.17 1405.3 Z" fill="#000000" fill-rule="nonzero" fill-opacity="1" /><polyline clip-path="url(#clip960)" style="stroke:#000000; stroke-linecap:round; stroke-linejoin:round; stroke-width:4; stroke-opacity:1; fill:none" points="361.02,1281.45 361.02,188.976 "/>
<polyline clip-path="url(#clip960)" style="stroke:#000000; stroke-linecap:round; stroke-linejoin:round; stroke-width:4; stroke-opacity:1; fill:none" points="361.02,1186.11 379.917,1186.11 "/>
<polyline clip-path="url(#clip960)" style="stroke:#000000; stroke-linecap:round; stroke-linejoin:round; stroke-width:4; stroke-opacity:1; fill:none" points="361.02,864.041 379.917,864.041 "/>
<polyline clip-path="url(#clip960)" style="stroke:#000000; stroke-linecap:round; stroke-linejoin:round; stroke-width:4; stroke-opacity:1; fill:none" points="361.02,541.968 379.917,541.968 "/>
<polyline clip-path="url(#clip960)" style="stroke:#000000; stroke-linecap:round; stroke-linejoin:round; stroke-width:4; stroke-opacity:1; fill:none" points="361.02,219.895 379.917,219.895 "/>
<path clip-path="url(#clip960)" d="M268.747 1171.91 Q265.136 1171.91 263.307 1175.48 Q261.502 1179.02 261.502 1186.15 Q261.502 1193.26 263.307 1196.82 Q265.136 1200.36 268.747 1200.36 Q272.381 1200.36 274.187 1196.82 Q276.015 1193.26 276.015 1186.15 Q276.015 1179.02 274.187 1175.48 Q272.381 1171.91 268.747 1171.91 M268.747 1168.21 Q274.557 1168.21 277.613 1172.82 Q280.691 1177.4 280.691 1186.15 Q280.691 1194.88 277.613 1199.48 Q274.557 1204.07 268.747 1204.07 Q262.937 1204.07 259.858 1199.48 Q256.803 1194.88 256.803 1186.15 Q256.803 1177.4 259.858 1172.82 Q262.937 1168.21 268.747 1168.21 Z" fill="#000000" fill-rule="nonzero" fill-opacity="1" /><path clip-path="url(#clip960)" d="M288.909 1197.51 L293.793 1197.51 L293.793 1203.39 L288.909 1203.39 L288.909 1197.51 Z" fill="#000000" fill-rule="nonzero" fill-opacity="1" /><path clip-path="url(#clip960)" d="M302.798 1168.83 L325.02 1168.83 L325.02 1170.82 L312.474 1203.39 L307.589 1203.39 L319.395 1172.77 L302.798 1172.77 L302.798 1168.83 Z" fill="#000000" fill-rule="nonzero" fill-opacity="1" /><path clip-path="url(#clip960)" d="M267.937 849.84 Q264.326 849.84 262.497 853.405 Q260.691 856.946 260.691 864.076 Q260.691 871.182 262.497 874.747 Q264.326 878.289 267.937 878.289 Q271.571 878.289 273.377 874.747 Q275.205 871.182 275.205 864.076 Q275.205 856.946 273.377 853.405 Q271.571 849.84 267.937 849.84 M267.937 846.136 Q273.747 846.136 276.803 850.743 Q279.881 855.326 279.881 864.076 Q279.881 872.803 276.803 877.409 Q273.747 881.992 267.937 881.992 Q262.127 881.992 259.048 877.409 Q255.992 872.803 255.992 864.076 Q255.992 855.326 259.048 850.743 Q262.127 846.136 267.937 846.136 Z" fill="#000000" fill-rule="nonzero" fill-opacity="1" /><path clip-path="url(#clip960)" d="M288.099 875.442 L292.983 875.442 L292.983 881.321 L288.099 881.321 L288.099 875.442 Z" fill="#000000" fill-rule="nonzero" fill-opacity="1" /><path clip-path="url(#clip960)" d="M313.168 864.909 Q309.835 864.909 307.913 866.692 Q306.015 868.474 306.015 871.599 Q306.015 874.724 307.913 876.506 Q309.835 878.289 313.168 878.289 Q316.501 878.289 318.423 876.506 Q320.344 874.701 320.344 871.599 Q320.344 868.474 318.423 866.692 Q316.525 864.909 313.168 864.909 M308.492 862.918 Q305.483 862.178 303.793 860.118 Q302.126 858.057 302.126 855.094 Q302.126 850.951 305.066 848.544 Q308.029 846.136 313.168 846.136 Q318.33 846.136 321.27 848.544 Q324.21 850.951 324.21 855.094 Q324.21 858.057 322.52 860.118 Q320.853 862.178 317.867 862.918 Q321.247 863.705 323.122 865.997 Q325.02 868.289 325.02 871.599 Q325.02 876.622 321.941 879.307 Q318.886 881.992 313.168 881.992 Q307.45 881.992 304.372 879.307 Q301.316 876.622 301.316 871.599 Q301.316 868.289 303.214 865.997 Q305.113 863.705 308.492 862.918 M306.779 855.534 Q306.779 858.219 308.446 859.724 Q310.136 861.229 313.168 861.229 Q316.177 861.229 317.867 859.724 Q319.58 858.219 319.58 855.534 Q319.58 852.849 317.867 851.344 Q316.177 849.84 313.168 849.84 Q310.136 849.84 308.446 851.344 Q306.779 852.849 306.779 855.534 Z" fill="#000000" fill-rule="nonzero" fill-opacity="1" /><path clip-path="url(#clip960)" d="M268.029 527.767 Q264.418 527.767 262.59 531.332 Q260.784 534.873 260.784 542.003 Q260.784 549.109 262.59 552.674 Q264.418 556.216 268.029 556.216 Q271.664 556.216 273.469 552.674 Q275.298 549.109 275.298 542.003 Q275.298 534.873 273.469 531.332 Q271.664 527.767 268.029 527.767 M268.029 524.063 Q273.84 524.063 276.895 528.67 Q279.974 533.253 279.974 542.003 Q279.974 550.73 276.895 555.336 Q273.84 559.92 268.029 559.92 Q262.219 559.92 259.141 555.336 Q256.085 550.73 256.085 542.003 Q256.085 533.253 259.141 528.67 Q262.219 524.063 268.029 524.063 Z" fill="#000000" fill-rule="nonzero" fill-opacity="1" /><path clip-path="url(#clip960)" d="M288.191 553.369 L293.076 553.369 L293.076 559.248 L288.191 559.248 L288.191 553.369 Z" fill="#000000" fill-rule="nonzero" fill-opacity="1" /><path clip-path="url(#clip960)" d="M303.4 558.531 L303.4 554.271 Q305.159 555.105 306.964 555.545 Q308.77 555.984 310.506 555.984 Q315.136 555.984 317.566 552.883 Q320.02 549.758 320.367 543.415 Q319.025 545.406 316.964 546.471 Q314.904 547.535 312.404 547.535 Q307.219 547.535 304.187 544.41 Q301.177 541.262 301.177 535.822 Q301.177 530.498 304.326 527.281 Q307.474 524.063 312.705 524.063 Q318.7 524.063 321.849 528.67 Q325.02 533.253 325.02 542.003 Q325.02 550.174 321.131 555.058 Q317.265 559.92 310.714 559.92 Q308.955 559.92 307.15 559.572 Q305.344 559.225 303.4 558.531 M312.705 543.878 Q315.853 543.878 317.682 541.725 Q319.534 539.572 319.534 535.822 Q319.534 532.096 317.682 529.943 Q315.853 527.767 312.705 527.767 Q309.557 527.767 307.705 529.943 Q305.876 532.096 305.876 535.822 Q305.876 539.572 307.705 541.725 Q309.557 543.878 312.705 543.878 Z" fill="#000000" fill-rule="nonzero" fill-opacity="1" /><path clip-path="url(#clip960)" d="M258.654 233.24 L266.293 233.24 L266.293 206.875 L257.983 208.541 L257.983 204.282 L266.247 202.615 L270.923 202.615 L270.923 233.24 L278.562 233.24 L278.562 237.175 L258.654 237.175 L258.654 233.24 Z" fill="#000000" fill-rule="nonzero" fill-opacity="1" /><path clip-path="url(#clip960)" d="M288.006 231.296 L292.89 231.296 L292.89 237.175 L288.006 237.175 L288.006 231.296 Z" fill="#000000" fill-rule="nonzero" fill-opacity="1" /><path clip-path="url(#clip960)" d="M313.075 205.694 Q309.464 205.694 307.636 209.259 Q305.83 212.801 305.83 219.93 Q305.83 227.037 307.636 230.601 Q309.464 234.143 313.075 234.143 Q316.71 234.143 318.515 230.601 Q320.344 227.037 320.344 219.93 Q320.344 212.801 318.515 209.259 Q316.71 205.694 313.075 205.694 M313.075 201.99 Q318.886 201.99 321.941 206.597 Q325.02 211.18 325.02 219.93 Q325.02 228.657 321.941 233.263 Q318.886 237.847 313.075 237.847 Q307.265 237.847 304.187 233.263 Q301.131 228.657 301.131 219.93 Q301.131 211.18 304.187 206.597 Q307.265 201.99 313.075 201.99 Z" fill="#000000" fill-rule="nonzero" fill-opacity="1" /><path clip-path="url(#clip960)" d="M158.216 971.268 L158.216 961.688 L190.554 949.561 L158.216 937.371 L158.216 927.791 L205.736 927.791 L205.736 934.061 L164.009 934.061 L196.602 946.315 L196.602 952.776 L164.009 965.03 L205.736 965.03 L205.736 971.268 L158.216 971.268 Z" fill="#000000" fill-rule="nonzero" fill-opacity="1" /><path clip-path="url(#clip960)" d="M186.448 884.79 L189.313 884.79 L189.313 911.717 Q195.36 911.335 198.543 908.089 Q201.694 904.81 201.694 898.986 Q201.694 895.612 200.867 892.461 Q200.039 889.278 198.384 886.159 L203.922 886.159 Q205.259 889.31 205.959 892.62 Q206.659 895.93 206.659 899.336 Q206.659 907.866 201.694 912.863 Q196.729 917.828 188.263 917.828 Q179.51 917.828 174.385 913.118 Q169.229 908.375 169.229 900.354 Q169.229 893.161 173.876 888.992 Q178.491 884.79 186.448 884.79 M184.73 890.647 Q179.924 890.71 177.059 893.352 Q174.194 895.962 174.194 900.291 Q174.194 905.192 176.963 908.152 Q179.733 911.081 184.761 911.526 L184.73 890.647 Z" fill="#000000" fill-rule="nonzero" fill-opacity="1" /><path clip-path="url(#clip960)" d="M187.817 858.977 Q187.817 866.075 189.44 868.812 Q191.063 871.549 194.978 871.549 Q198.098 871.549 199.944 869.512 Q201.758 867.444 201.758 863.911 Q201.758 859.041 198.32 856.113 Q194.851 853.153 189.122 853.153 L187.817 853.153 L187.817 858.977 M185.398 847.296 L205.736 847.296 L205.736 853.153 L200.326 853.153 Q203.572 855.158 205.132 858.15 Q206.659 861.142 206.659 865.47 Q206.659 870.945 203.604 874.191 Q200.517 877.406 195.36 877.406 Q189.345 877.406 186.289 873.396 Q183.234 869.353 183.234 861.364 L183.234 853.153 L182.661 853.153 Q178.619 853.153 176.422 855.826 Q174.194 858.468 174.194 863.274 Q174.194 866.33 174.926 869.226 Q175.658 872.122 177.123 874.796 L171.712 874.796 Q170.47 871.581 169.866 868.558 Q169.229 865.534 169.229 862.669 Q169.229 854.935 173.24 851.116 Q177.25 847.296 185.398 847.296 Z" fill="#000000" fill-rule="nonzero" fill-opacity="1" /><path clip-path="url(#clip960)" d="M184.22 805.601 L205.736 805.601 L205.736 811.457 L184.411 811.457 Q179.351 811.457 176.836 813.431 Q174.322 815.404 174.322 819.351 Q174.322 824.093 177.345 826.83 Q180.369 829.568 185.589 829.568 L205.736 829.568 L205.736 835.456 L170.088 835.456 L170.088 829.568 L175.627 829.568 Q172.412 827.467 170.821 824.634 Q169.229 821.77 169.229 818.046 Q169.229 811.903 173.049 808.752 Q176.836 805.601 184.22 805.601 Z" fill="#000000" fill-rule="nonzero" fill-opacity="1" /><path clip-path="url(#clip960)" d="M159.967 767.407 L170.088 767.407 L170.088 755.344 L174.64 755.344 L174.64 767.407 L193.992 767.407 Q198.352 767.407 199.594 766.229 Q200.835 765.019 200.835 761.359 L200.835 755.344 L205.736 755.344 L205.736 761.359 Q205.736 768.139 203.222 770.717 Q200.676 773.295 193.992 773.295 L174.64 773.295 L174.64 777.592 L170.088 777.592 L170.088 773.295 L159.967 773.295 L159.967 767.407 Z" fill="#000000" fill-rule="nonzero" fill-opacity="1" /><path clip-path="url(#clip960)" d="M186.448 717.149 L189.313 717.149 L189.313 744.076 Q195.36 743.694 198.543 740.448 Q201.694 737.169 201.694 731.345 Q201.694 727.971 200.867 724.82 Q200.039 721.637 198.384 718.518 L203.922 718.518 Q205.259 721.669 205.959 724.979 Q206.659 728.289 206.659 731.695 Q206.659 740.225 201.694 745.222 Q196.729 750.187 188.263 750.187 Q179.51 750.187 174.385 745.477 Q169.229 740.734 169.229 732.713 Q169.229 725.52 173.876 721.351 Q178.491 717.149 186.448 717.149 M184.73 723.006 Q179.924 723.069 177.059 725.711 Q174.194 728.321 174.194 732.65 Q174.194 737.551 176.963 740.511 Q179.733 743.44 184.761 743.885 L184.73 723.006 Z" fill="#000000" fill-rule="nonzero" fill-opacity="1" /><path clip-path="url(#clip960)" d="M171.139 684.811 L176.677 684.811 Q175.404 687.294 174.767 689.968 Q174.131 692.641 174.131 695.506 Q174.131 699.866 175.468 702.063 Q176.804 704.227 179.478 704.227 Q181.515 704.227 182.693 702.667 Q183.838 701.108 184.889 696.397 L185.334 694.392 Q186.671 688.153 189.122 685.544 Q191.541 682.902 195.901 682.902 Q200.867 682.902 203.763 686.849 Q206.659 690.763 206.659 697.638 Q206.659 700.503 206.087 703.622 Q205.545 706.71 204.431 710.147 L198.384 710.147 Q200.071 706.9 200.93 703.749 Q201.758 700.598 201.758 697.511 Q201.758 693.373 200.357 691.145 Q198.925 688.917 196.347 688.917 Q193.96 688.917 192.687 690.541 Q191.414 692.132 190.236 697.575 L189.759 699.612 Q188.613 705.054 186.257 707.473 Q183.87 709.892 179.733 709.892 Q174.704 709.892 171.966 706.328 Q169.229 702.763 169.229 696.206 Q169.229 692.96 169.707 690.095 Q170.184 687.23 171.139 684.811 Z" fill="#000000" fill-rule="nonzero" fill-opacity="1" /><path clip-path="url(#clip960)" d="M159.967 667.783 L170.088 667.783 L170.088 655.72 L174.64 655.72 L174.64 667.783 L193.992 667.783 Q198.352 667.783 199.594 666.606 Q200.835 665.396 200.835 661.736 L200.835 655.72 L205.736 655.72 L205.736 661.736 Q205.736 668.515 203.222 671.093 Q200.676 673.671 193.992 673.671 L174.64 673.671 L174.64 677.968 L170.088 677.968 L170.088 673.671 L159.967 673.671 L159.967 667.783 Z" fill="#000000" fill-rule="nonzero" fill-opacity="1" /><path clip-path="url(#clip960)" d="M164.55 611.16 L188.199 619.881 L188.199 602.407 L164.55 611.16 M158.216 614.789 L158.216 607.5 L205.736 589.39 L205.736 596.074 L193.546 600.402 L193.546 621.823 L205.736 626.151 L205.736 632.931 L158.216 614.789 Z" fill="#000000" fill-rule="nonzero" fill-opacity="1" /><path clip-path="url(#clip960)" d="M158.216 583.183 L158.216 576.722 L187.085 576.722 Q194.724 576.722 198.098 573.953 Q201.44 571.184 201.44 564.977 Q201.44 558.802 198.098 556.033 Q194.724 553.264 187.085 553.264 L158.216 553.264 L158.216 546.803 L187.881 546.803 Q197.175 546.803 201.917 551.418 Q206.659 556.001 206.659 564.977 Q206.659 573.985 201.917 578.6 Q197.175 583.183 187.881 583.183 L158.216 583.183 Z" fill="#000000" fill-rule="nonzero" fill-opacity="1" /><path clip-path="url(#clip960)" d="M161.877 499.156 L168.656 499.156 Q165.632 502.402 164.137 506.094 Q162.641 509.755 162.641 513.892 Q162.641 522.04 167.638 526.369 Q172.603 530.698 182.024 530.698 Q191.414 530.698 196.411 526.369 Q201.376 522.04 201.376 513.892 Q201.376 509.755 199.88 506.094 Q198.384 502.402 195.36 499.156 L202.076 499.156 Q204.368 502.529 205.514 506.317 Q206.659 510.073 206.659 514.274 Q206.659 525.064 200.071 531.271 Q193.451 537.477 182.024 537.477 Q170.566 537.477 163.977 531.271 Q157.357 525.064 157.357 514.274 Q157.357 510.009 158.503 506.253 Q159.617 502.466 161.877 499.156 Z" fill="#000000" fill-rule="nonzero" fill-opacity="1" /><path clip-path="url(#clip961)" d="M413.378 1089.49 L849.7 775.471 L1286.02 670.797 L1722.34 775.471 L2158.67 445.346 L2158.67 219.895 L1722.34 509.761 L1286.02 413.139 L849.7 308.465 L413.378 598.331  Z" fill="#1f77b4" fill-rule="evenodd" fill-opacity="0.15"/>
<polyline clip-path="url(#clip961)" style="stroke:#1f77b4; stroke-linecap:round; stroke-linejoin:round; stroke-width:20; stroke-opacity:1; fill:none" points="413.378,686.901 849.7,590.279 1286.02,606.383 1722.34,574.176 2158.67,252.103 "/>
<circle clip-path="url(#clip961)" cx="413.378" cy="686.901" r="21.6" fill="#1f77b4" fill-rule="evenodd" fill-opacity="1" stroke="#000000" stroke-opacity="1" stroke-width="3.2"/>
<circle clip-path="url(#clip961)" cx="849.7" cy="590.279" r="21.6" fill="#1f77b4" fill-rule="evenodd" fill-opacity="1" stroke="#000000" stroke-opacity="1" stroke-width="3.2"/>
<circle clip-path="url(#clip961)" cx="1286.02" cy="606.383" r="21.6" fill="#1f77b4" fill-rule="evenodd" fill-opacity="1" stroke="#000000" stroke-opacity="1" stroke-width="3.2"/>
<circle clip-path="url(#clip961)" cx="1722.34" cy="574.176" r="21.6" fill="#1f77b4" fill-rule="evenodd" fill-opacity="1" stroke="#000000" stroke-opacity="1" stroke-width="3.2"/>
<circle clip-path="url(#clip961)" cx="2158.67" cy="252.103" r="21.6" fill="#1f77b4" fill-rule="evenodd" fill-opacity="1" stroke="#000000" stroke-opacity="1" stroke-width="3.2"/>
<path clip-path="url(#clip961)" d="M413.378 872.093 L849.7 783.523 L1286.02 670.797 L1722.34 815.73 L2158.67 252.103 L2158.67 219.895 L1722.34 485.605 L1286.02 380.932 L849.7 276.258 L413.378 380.932  Z" fill="#ff7e0d" fill-rule="evenodd" fill-opacity="0.15"/>
<polyline clip-path="url(#clip961)" style="stroke:#ff7e0d; stroke-linecap:round; stroke-linejoin:round; stroke-width:20; stroke-opacity:1; fill:none" points="413.378,654.694 849.7,541.968 1286.02,574.176 1722.34,622.486 2158.67,252.103 "/>
<circle clip-path="url(#clip961)" cx="413.378" cy="654.694" r="21.6" fill="#ff7e0d" fill-rule="evenodd" fill-opacity="1" stroke="#000000" stroke-opacity="1" stroke-width="3.2"/>
<circle clip-path="url(#clip961)" cx="849.7" cy="541.968" r="21.6" fill="#ff7e0d" fill-rule="evenodd" fill-opacity="1" stroke="#000000" stroke-opacity="1" stroke-width="3.2"/>
<circle clip-path="url(#clip961)" cx="1286.02" cy="574.176" r="21.6" fill="#ff7e0d" fill-rule="evenodd" fill-opacity="1" stroke="#000000" stroke-opacity="1" stroke-width="3.2"/>
<circle clip-path="url(#clip961)" cx="1722.34" cy="622.486" r="21.6" fill="#ff7e0d" fill-rule="evenodd" fill-opacity="1" stroke="#000000" stroke-opacity="1" stroke-width="3.2"/>
<circle clip-path="url(#clip961)" cx="2158.67" cy="252.103" r="21.6" fill="#ff7e0d" fill-rule="evenodd" fill-opacity="1" stroke="#000000" stroke-opacity="1" stroke-width="3.2"/>
<path clip-path="url(#clip961)" d="M413.378 1025.08 L849.7 944.559 L1286.02 670.797 L1722.34 831.834 L2158.67 252.103 L2158.67 219.895 L1722.34 493.657 L1286.02 380.932 L849.7 308.465 L413.378 469.502  Z" fill="#2ba02b" fill-rule="evenodd" fill-opacity="0.15"/>
<polyline clip-path="url(#clip961)" style="stroke:#2ba02b; stroke-linecap:round; stroke-linejoin:round; stroke-width:20; stroke-opacity:1; fill:none" points="413.378,703.005 849.7,654.694 1286.02,541.968 1722.34,606.383 2158.67,252.103 "/>
<circle clip-path="url(#clip961)" cx="413.378" cy="703.005" r="21.6" fill="#2ba02b" fill-rule="evenodd" fill-opacity="1" stroke="#000000" stroke-opacity="1" stroke-width="3.2"/>
<circle clip-path="url(#clip961)" cx="849.7" cy="654.694" r="21.6" fill="#2ba02b" fill-rule="evenodd" fill-opacity="1" stroke="#000000" stroke-opacity="1" stroke-width="3.2"/>
<circle clip-path="url(#clip961)" cx="1286.02" cy="541.968" r="21.6" fill="#2ba02b" fill-rule="evenodd" fill-opacity="1" stroke="#000000" stroke-opacity="1" stroke-width="3.2"/>
<circle clip-path="url(#clip961)" cx="1722.34" cy="606.383" r="21.6" fill="#2ba02b" fill-rule="evenodd" fill-opacity="1" stroke="#000000" stroke-opacity="1" stroke-width="3.2"/>
<circle clip-path="url(#clip961)" cx="2158.67" cy="252.103" r="21.6" fill="#2ba02b" fill-rule="evenodd" fill-opacity="1" stroke="#000000" stroke-opacity="1" stroke-width="3.2"/>
<path clip-path="url(#clip961)" d="M413.378 1250.53 L849.7 920.404 L1286.02 735.212 L1722.34 904.3 L2158.67 348.725 L2158.67 284.31 L1722.34 598.331 L1286.02 445.346 L849.7 590.279 L413.378 630.538  Z" fill="#d52628" fill-rule="evenodd" fill-opacity="0.15"/>
<polyline clip-path="url(#clip961)" style="stroke:#d52628; stroke-linecap:round; stroke-linejoin:round; stroke-width:20; stroke-opacity:1; fill:none" points="413.378,735.212 849.7,799.627 1286.02,574.176 1722.34,654.694 2158.67,316.517 "/>
<circle clip-path="url(#clip961)" cx="413.378" cy="735.212" r="21.6" fill="#d52628" fill-rule="evenodd" fill-opacity="1" stroke="#000000" stroke-opacity="1" stroke-width="3.2"/>
<circle clip-path="url(#clip961)" cx="849.7" cy="799.627" r="21.6" fill="#d52628" fill-rule="evenodd" fill-opacity="1" stroke="#000000" stroke-opacity="1" stroke-width="3.2"/>
<circle clip-path="url(#clip961)" cx="1286.02" cy="574.176" r="21.6" fill="#d52628" fill-rule="evenodd" fill-opacity="1" stroke="#000000" stroke-opacity="1" stroke-width="3.2"/>
<circle clip-path="url(#clip961)" cx="1722.34" cy="654.694" r="21.6" fill="#d52628" fill-rule="evenodd" fill-opacity="1" stroke="#000000" stroke-opacity="1" stroke-width="3.2"/>
<circle clip-path="url(#clip961)" cx="2158.67" cy="316.517" r="21.6" fill="#d52628" fill-rule="evenodd" fill-opacity="1" stroke="#000000" stroke-opacity="1" stroke-width="3.2"/>
<path clip-path="url(#clip961)" d="M413.378 1089.49 L849.7 1170.01 L1286.02 703.005 L1722.34 920.404 L2158.67 767.419 L2158.67 252.103 L1722.34 590.279 L1286.02 413.139 L849.7 638.59 L413.378 582.227  Z" fill="#9466bd" fill-rule="evenodd" fill-opacity="0.15"/>
<polyline clip-path="url(#clip961)" style="stroke:#9466bd; stroke-linecap:round; stroke-linejoin:round; stroke-width:20; stroke-opacity:1; fill:none" points="413.378,703.005 849.7,928.456 1286.02,670.797 1722.34,638.59 2158.67,252.103 "/>
<circle clip-path="url(#clip961)" cx="413.378" cy="703.005" r="21.6" fill="#9466bd" fill-rule="evenodd" fill-opacity="1" stroke="#000000" stroke-opacity="1" stroke-width="3.2"/>
<circle clip-path="url(#clip961)" cx="849.7" cy="928.456" r="21.6" fill="#9466bd" fill-rule="evenodd" fill-opacity="1" stroke="#000000" stroke-opacity="1" stroke-width="3.2"/>
<circle clip-path="url(#clip961)" cx="1286.02" cy="670.797" r="21.6" fill="#9466bd" fill-rule="evenodd" fill-opacity="1" stroke="#000000" stroke-opacity="1" stroke-width="3.2"/>
<circle clip-path="url(#clip961)" cx="1722.34" cy="638.59" r="21.6" fill="#9466bd" fill-rule="evenodd" fill-opacity="1" stroke="#000000" stroke-opacity="1" stroke-width="3.2"/>
<circle clip-path="url(#clip961)" cx="2158.67" cy="252.103" r="21.6" fill="#9466bd" fill-rule="evenodd" fill-opacity="1" stroke="#000000" stroke-opacity="1" stroke-width="3.2"/>
<path clip-path="url(#clip960)" d="M1530.66 1245.03 L2149.36 1245.03 L2149.36 933.992 L1530.66 933.992  Z" fill="#ffffff" fill-rule="evenodd" fill-opacity="1"/>
<polyline clip-path="url(#clip960)" style="stroke:#000000; stroke-linecap:round; stroke-linejoin:round; stroke-width:4; stroke-opacity:1; fill:none" points="1530.66,1245.03 2149.36,1245.03 2149.36,933.992 1530.66,933.992 1530.66,1245.03 "/>
<polyline clip-path="url(#clip960)" style="stroke:#1f77b4; stroke-linecap:round; stroke-linejoin:round; stroke-width:20; stroke-opacity:1; fill:none" points="1551.21,985.832 1674.54,985.832 "/>
<circle clip-path="url(#clip960)" cx="1612.88" cy="985.832" r="17.1297" fill="#1f77b4" fill-rule="evenodd" fill-opacity="1" stroke="#000000" stroke-opacity="1" stroke-width="3.15077"/>
<path clip-path="url(#clip960)" d="M1710.93 973.158 L1704.59 990.357 L1717.3 990.357 L1710.93 973.158 M1708.29 968.552 L1713.6 968.552 L1726.77 1003.11 L1721.91 1003.11 L1718.76 994.246 L1703.18 994.246 L1700.03 1003.11 L1695.1 1003.11 L1708.29 968.552 Z" fill="#000000" fill-rule="nonzero" fill-opacity="1" /><path clip-path="url(#clip960)" d="M1731.19 992.88 L1731.19 977.186 L1735.45 977.186 L1735.45 992.718 Q1735.45 996.399 1736.88 998.251 Q1738.32 1000.08 1741.19 1000.08 Q1744.64 1000.08 1746.63 997.88 Q1748.64 995.681 1748.64 991.885 L1748.64 977.186 L1752.9 977.186 L1752.9 1003.11 L1748.64 1003.11 L1748.64 999.13 Q1747.09 1001.49 1745.03 1002.65 Q1742.99 1003.78 1740.28 1003.78 Q1735.82 1003.78 1733.5 1001.01 Q1731.19 998.228 1731.19 992.88 M1741.91 976.561 L1741.91 976.561 Z" fill="#000000" fill-rule="nonzero" fill-opacity="1" /><path clip-path="url(#clip960)" d="M1765.89 969.825 L1765.89 977.186 L1774.66 977.186 L1774.66 980.496 L1765.89 980.496 L1765.89 994.57 Q1765.89 997.742 1766.74 998.644 Q1767.62 999.547 1770.28 999.547 L1774.66 999.547 L1774.66 1003.11 L1770.28 1003.11 Q1765.35 1003.11 1763.48 1001.28 Q1761.6 999.431 1761.6 994.57 L1761.6 980.496 L1758.48 980.496 L1758.48 977.186 L1761.6 977.186 L1761.6 969.825 L1765.89 969.825 Z" fill="#000000" fill-rule="nonzero" fill-opacity="1" /><path clip-path="url(#clip960)" d="M1790.31 980.172 Q1786.88 980.172 1784.89 982.857 Q1782.9 985.519 1782.9 990.172 Q1782.9 994.825 1784.87 997.51 Q1786.86 1000.17 1790.31 1000.17 Q1793.71 1000.17 1795.7 997.487 Q1797.69 994.802 1797.69 990.172 Q1797.69 985.566 1795.7 982.88 Q1793.71 980.172 1790.31 980.172 M1790.31 976.561 Q1795.86 976.561 1799.03 980.172 Q1802.21 983.783 1802.21 990.172 Q1802.21 996.538 1799.03 1000.17 Q1795.86 1003.78 1790.31 1003.78 Q1784.73 1003.78 1781.56 1000.17 Q1778.41 996.538 1778.41 990.172 Q1778.41 983.783 1781.56 980.172 Q1784.73 976.561 1790.31 976.561 Z" fill="#000000" fill-rule="nonzero" fill-opacity="1" /><path clip-path="url(#clip960)" d="M1814.13 972.394 L1814.13 985.38 L1820.01 985.38 Q1823.27 985.38 1825.05 983.691 Q1826.84 982.001 1826.84 978.876 Q1826.84 975.774 1825.05 974.084 Q1823.27 972.394 1820.01 972.394 L1814.13 972.394 M1809.45 968.552 L1820.01 968.552 Q1825.82 968.552 1828.78 971.191 Q1831.77 973.806 1831.77 978.876 Q1831.77 983.992 1828.78 986.607 Q1825.82 989.223 1820.01 989.223 L1814.13 989.223 L1814.13 1003.11 L1809.45 1003.11 L1809.45 968.552 Z" fill="#000000" fill-rule="nonzero" fill-opacity="1" /><path clip-path="url(#clip960)" d="M1852.04 981.168 Q1851.33 980.751 1850.47 980.566 Q1849.64 980.357 1848.62 980.357 Q1845.01 980.357 1843.06 982.718 Q1841.14 985.056 1841.14 989.455 L1841.14 1003.11 L1836.86 1003.11 L1836.86 977.186 L1841.14 977.186 L1841.14 981.214 Q1842.48 978.853 1844.64 977.718 Q1846.79 976.561 1849.87 976.561 Q1850.31 976.561 1850.84 976.631 Q1851.37 976.677 1852.02 976.793 L1852.04 981.168 Z" fill="#000000" fill-rule="nonzero" fill-opacity="1" /><path clip-path="url(#clip960)" d="M1865.52 980.172 Q1862.09 980.172 1860.1 982.857 Q1858.11 985.519 1858.11 990.172 Q1858.11 994.825 1860.08 997.51 Q1862.07 1000.17 1865.52 1000.17 Q1868.92 1000.17 1870.91 997.487 Q1872.9 994.802 1872.9 990.172 Q1872.9 985.566 1870.91 982.88 Q1868.92 980.172 1865.52 980.172 M1865.52 976.561 Q1871.07 976.561 1874.24 980.172 Q1877.41 983.783 1877.41 990.172 Q1877.41 996.538 1874.24 1000.17 Q1871.07 1003.78 1865.52 1003.78 Q1859.94 1003.78 1856.77 1000.17 Q1853.62 996.538 1853.62 990.172 Q1853.62 983.783 1856.77 980.172 Q1859.94 976.561 1865.52 976.561 Z" fill="#000000" fill-rule="nonzero" fill-opacity="1" /><path clip-path="url(#clip960)" d="M1901.53 989.848 Q1901.53 985.218 1899.61 982.672 Q1897.71 980.126 1894.27 980.126 Q1890.84 980.126 1888.92 982.672 Q1887.02 985.218 1887.02 989.848 Q1887.02 994.454 1888.92 997.001 Q1890.84 999.547 1894.27 999.547 Q1897.71 999.547 1899.61 997.001 Q1901.53 994.454 1901.53 989.848 M1905.79 999.894 Q1905.79 1006.51 1902.85 1009.73 Q1899.91 1012.97 1893.85 1012.97 Q1891.6 1012.97 1889.61 1012.63 Q1887.62 1012.3 1885.75 1011.61 L1885.75 1007.46 Q1887.62 1008.48 1889.45 1008.97 Q1891.28 1009.45 1893.18 1009.45 Q1897.37 1009.45 1899.45 1007.26 Q1901.53 1005.08 1901.53 1000.66 L1901.53 998.552 Q1900.21 1000.84 1898.15 1001.98 Q1896.09 1003.11 1893.22 1003.11 Q1888.46 1003.11 1885.54 999.478 Q1882.62 995.843 1882.62 989.848 Q1882.62 983.83 1885.54 980.195 Q1888.46 976.561 1893.22 976.561 Q1896.09 976.561 1898.15 977.695 Q1900.21 978.83 1901.53 981.121 L1901.53 977.186 L1905.79 977.186 L1905.79 999.894 Z" fill="#000000" fill-rule="nonzero" fill-opacity="1" /><path clip-path="url(#clip960)" d="M1936.12 987.464 L1936.12 1003.11 L1931.86 1003.11 L1931.86 987.603 Q1931.86 983.922 1930.42 982.093 Q1928.99 980.265 1926.12 980.265 Q1922.67 980.265 1920.68 982.464 Q1918.69 984.663 1918.69 988.459 L1918.69 1003.11 L1914.4 1003.11 L1914.4 977.186 L1918.69 977.186 L1918.69 981.214 Q1920.21 978.876 1922.27 977.718 Q1924.36 976.561 1927.07 976.561 Q1931.53 976.561 1933.83 979.339 Q1936.12 982.093 1936.12 987.464 Z" fill="#000000" fill-rule="nonzero" fill-opacity="1" /><path clip-path="url(#clip960)" d="M1954.66 980.172 Q1951.23 980.172 1949.24 982.857 Q1947.25 985.519 1947.25 990.172 Q1947.25 994.825 1949.22 997.51 Q1951.21 1000.17 1954.66 1000.17 Q1958.06 1000.17 1960.05 997.487 Q1962.04 994.802 1962.04 990.172 Q1962.04 985.566 1960.05 982.88 Q1958.06 980.172 1954.66 980.172 M1954.66 976.561 Q1960.21 976.561 1963.39 980.172 Q1966.56 983.783 1966.56 990.172 Q1966.56 996.538 1963.39 1000.17 Q1960.21 1003.78 1954.66 1003.78 Q1949.08 1003.78 1945.91 1000.17 Q1942.76 996.538 1942.76 990.172 Q1942.76 983.783 1945.91 980.172 Q1949.08 976.561 1954.66 976.561 Z" fill="#000000" fill-rule="nonzero" fill-opacity="1" /><path clip-path="url(#clip960)" d="M1990.14 977.95 L1990.14 981.978 Q1988.34 981.052 1986.39 980.589 Q1984.45 980.126 1982.37 980.126 Q1979.2 980.126 1977.6 981.098 Q1976.02 982.07 1976.02 984.015 Q1976.02 985.496 1977.16 986.353 Q1978.29 987.186 1981.72 987.95 L1983.18 988.274 Q1987.71 989.246 1989.61 991.029 Q1991.53 992.788 1991.53 995.959 Q1991.53 999.57 1988.66 1001.68 Q1985.82 1003.78 1980.82 1003.78 Q1978.73 1003.78 1976.46 1003.37 Q1974.22 1002.97 1971.72 1002.16 L1971.72 997.765 Q1974.08 998.992 1976.37 999.617 Q1978.66 1000.22 1980.91 1000.22 Q1983.92 1000.22 1985.54 999.2 Q1987.16 998.158 1987.16 996.283 Q1987.16 994.547 1985.98 993.621 Q1984.82 992.695 1980.86 991.839 L1979.38 991.492 Q1975.42 990.658 1973.66 988.945 Q1971.9 987.209 1971.9 984.2 Q1971.9 980.543 1974.5 978.552 Q1977.09 976.561 1981.86 976.561 Q1984.22 976.561 1986.3 976.908 Q1988.39 977.256 1990.14 977.95 Z" fill="#000000" fill-rule="nonzero" fill-opacity="1" /><path clip-path="url(#clip960)" d="M1998.32 977.186 L2002.58 977.186 L2002.58 1003.11 L1998.32 1003.11 L1998.32 977.186 M1998.32 967.094 L2002.58 967.094 L2002.58 972.487 L1998.32 972.487 L1998.32 967.094 Z" fill="#000000" fill-rule="nonzero" fill-opacity="1" /><path clip-path="url(#clip960)" d="M2028.01 977.95 L2028.01 981.978 Q2026.21 981.052 2024.26 980.589 Q2022.32 980.126 2020.24 980.126 Q2017.07 980.126 2015.47 981.098 Q2013.89 982.07 2013.89 984.015 Q2013.89 985.496 2015.03 986.353 Q2016.16 987.186 2019.59 987.95 L2021.05 988.274 Q2025.58 989.246 2027.48 991.029 Q2029.4 992.788 2029.4 995.959 Q2029.4 999.57 2026.53 1001.68 Q2023.69 1003.78 2018.69 1003.78 Q2016.6 1003.78 2014.33 1003.37 Q2012.09 1002.97 2009.59 1002.16 L2009.59 997.765 Q2011.95 998.992 2014.24 999.617 Q2016.53 1000.22 2018.78 1000.22 Q2021.79 1000.22 2023.41 999.2 Q2025.03 998.158 2025.03 996.283 Q2025.03 994.547 2023.85 993.621 Q2022.69 992.695 2018.73 991.839 L2017.25 991.492 Q2013.29 990.658 2011.53 988.945 Q2009.77 987.209 2009.77 984.2 Q2009.77 980.543 2012.37 978.552 Q2014.96 976.561 2019.73 976.561 Q2022.09 976.561 2024.17 976.908 Q2026.26 977.256 2028.01 977.95 Z" fill="#000000" fill-rule="nonzero" fill-opacity="1" /><polyline clip-path="url(#clip960)" style="stroke:#ff7e0d; stroke-linecap:round; stroke-linejoin:round; stroke-width:20; stroke-opacity:1; fill:none" points="1551.21,1037.67 1674.54,1037.67 "/>
<circle clip-path="url(#clip960)" cx="1612.88" cy="1037.67" r="17.1297" fill="#ff7e0d" fill-rule="evenodd" fill-opacity="1" stroke="#000000" stroke-opacity="1" stroke-width="3.15077"/>
<path clip-path="url(#clip960)" d="M1710.93 1025 L1704.59 1042.2 L1717.3 1042.2 L1710.93 1025 M1708.29 1020.39 L1713.6 1020.39 L1726.77 1054.95 L1721.91 1054.95 L1718.76 1046.09 L1703.18 1046.09 L1700.03 1054.95 L1695.1 1054.95 L1708.29 1020.39 Z" fill="#000000" fill-rule="nonzero" fill-opacity="1" /><path clip-path="url(#clip960)" d="M1731.19 1044.72 L1731.19 1029.03 L1735.45 1029.03 L1735.45 1044.56 Q1735.45 1048.24 1736.88 1050.09 Q1738.32 1051.92 1741.19 1051.92 Q1744.64 1051.92 1746.63 1049.72 Q1748.64 1047.52 1748.64 1043.73 L1748.64 1029.03 L1752.9 1029.03 L1752.9 1054.95 L1748.64 1054.95 L1748.64 1050.97 Q1747.09 1053.33 1745.03 1054.49 Q1742.99 1055.62 1740.28 1055.62 Q1735.82 1055.62 1733.5 1052.85 Q1731.19 1050.07 1731.19 1044.72 M1741.91 1028.4 L1741.91 1028.4 Z" fill="#000000" fill-rule="nonzero" fill-opacity="1" /><path clip-path="url(#clip960)" d="M1765.89 1021.66 L1765.89 1029.03 L1774.66 1029.03 L1774.66 1032.34 L1765.89 1032.34 L1765.89 1046.41 Q1765.89 1049.58 1766.74 1050.48 Q1767.62 1051.39 1770.28 1051.39 L1774.66 1051.39 L1774.66 1054.95 L1770.28 1054.95 Q1765.35 1054.95 1763.48 1053.12 Q1761.6 1051.27 1761.6 1046.41 L1761.6 1032.34 L1758.48 1032.34 L1758.48 1029.03 L1761.6 1029.03 L1761.6 1021.66 L1765.89 1021.66 Z" fill="#000000" fill-rule="nonzero" fill-opacity="1" /><path clip-path="url(#clip960)" d="M1790.31 1032.01 Q1786.88 1032.01 1784.89 1034.7 Q1782.9 1037.36 1782.9 1042.01 Q1782.9 1046.66 1784.87 1049.35 Q1786.86 1052.01 1790.31 1052.01 Q1793.71 1052.01 1795.7 1049.33 Q1797.69 1046.64 1797.69 1042.01 Q1797.69 1037.41 1795.7 1034.72 Q1793.71 1032.01 1790.31 1032.01 M1790.31 1028.4 Q1795.86 1028.4 1799.03 1032.01 Q1802.21 1035.62 1802.21 1042.01 Q1802.21 1048.38 1799.03 1052.01 Q1795.86 1055.62 1790.31 1055.62 Q1784.73 1055.62 1781.56 1052.01 Q1778.41 1048.38 1778.41 1042.01 Q1778.41 1035.62 1781.56 1032.01 Q1784.73 1028.4 1790.31 1028.4 Z" fill="#000000" fill-rule="nonzero" fill-opacity="1" /><path clip-path="url(#clip960)" d="M1833.02 1050.02 L1833.02 1040.74 L1825.38 1040.74 L1825.38 1036.9 L1837.65 1036.9 L1837.65 1051.73 Q1834.94 1053.66 1831.67 1054.65 Q1828.41 1055.62 1824.71 1055.62 Q1816.6 1055.62 1812.02 1050.9 Q1807.46 1046.16 1807.46 1037.71 Q1807.46 1029.23 1812.02 1024.51 Q1816.6 1019.77 1824.71 1019.77 Q1828.09 1019.77 1831.12 1020.6 Q1834.17 1021.43 1836.74 1023.05 L1836.74 1028.03 Q1834.15 1025.83 1831.23 1024.72 Q1828.32 1023.61 1825.1 1023.61 Q1818.76 1023.61 1815.56 1027.15 Q1812.39 1030.69 1812.39 1037.71 Q1812.39 1044.7 1815.56 1048.24 Q1818.76 1051.78 1825.1 1051.78 Q1827.58 1051.78 1829.52 1051.36 Q1831.46 1050.92 1833.02 1050.02 Z" fill="#000000" fill-rule="nonzero" fill-opacity="1" /><path clip-path="url(#clip960)" d="M1846 1018.93 L1850.26 1018.93 L1850.26 1054.95 L1846 1054.95 L1846 1018.93 Z" fill="#000000" fill-rule="nonzero" fill-opacity="1" /><path clip-path="url(#clip960)" d="M1858.73 1044.72 L1858.73 1029.03 L1862.99 1029.03 L1862.99 1044.56 Q1862.99 1048.24 1864.43 1050.09 Q1865.86 1051.92 1868.73 1051.92 Q1872.18 1051.92 1874.17 1049.72 Q1876.19 1047.52 1876.19 1043.73 L1876.19 1029.03 L1880.45 1029.03 L1880.45 1054.95 L1876.19 1054.95 L1876.19 1050.97 Q1874.64 1053.33 1872.58 1054.49 Q1870.54 1055.62 1867.83 1055.62 Q1863.36 1055.62 1861.05 1052.85 Q1858.73 1050.07 1858.73 1044.72 M1869.45 1028.4 L1869.45 1028.4 Z" fill="#000000" fill-rule="nonzero" fill-opacity="1" /><path clip-path="url(#clip960)" d="M1899.27 1032.01 Q1895.84 1032.01 1893.85 1034.7 Q1891.86 1037.36 1891.86 1042.01 Q1891.86 1046.66 1893.83 1049.35 Q1895.82 1052.01 1899.27 1052.01 Q1902.67 1052.01 1904.66 1049.33 Q1906.65 1046.64 1906.65 1042.01 Q1906.65 1037.41 1904.66 1034.72 Q1902.67 1032.01 1899.27 1032.01 M1899.27 1028.4 Q1904.82 1028.4 1907.99 1032.01 Q1911.16 1035.62 1911.16 1042.01 Q1911.16 1048.38 1907.99 1052.01 Q1904.82 1055.62 1899.27 1055.62 Q1893.69 1055.62 1890.52 1052.01 Q1887.37 1048.38 1887.37 1042.01 Q1887.37 1035.62 1890.52 1032.01 Q1893.69 1028.4 1899.27 1028.4 Z" fill="#000000" fill-rule="nonzero" fill-opacity="1" /><path clip-path="url(#clip960)" d="M1939.77 1039.3 L1939.77 1054.95 L1935.52 1054.95 L1935.52 1039.44 Q1935.52 1035.76 1934.08 1033.93 Q1932.64 1032.1 1929.77 1032.1 Q1926.33 1032.1 1924.33 1034.3 Q1922.34 1036.5 1922.34 1040.3 L1922.34 1054.95 L1918.06 1054.95 L1918.06 1029.03 L1922.34 1029.03 L1922.34 1033.05 Q1923.87 1030.72 1925.93 1029.56 Q1928.02 1028.4 1930.72 1028.4 Q1935.19 1028.4 1937.48 1031.18 Q1939.77 1033.93 1939.77 1039.3 Z" fill="#000000" fill-rule="nonzero" fill-opacity="1" /><polyline clip-path="url(#clip960)" style="stroke:#2ba02b; stroke-linecap:round; stroke-linejoin:round; stroke-width:20; stroke-opacity:1; fill:none" points="1551.21,1089.51 1674.54,1089.51 "/>
<circle clip-path="url(#clip960)" cx="1612.88" cy="1089.51" r="17.1297" fill="#2ba02b" fill-rule="evenodd" fill-opacity="1" stroke="#000000" stroke-opacity="1" stroke-width="3.15077"/>
<path clip-path="url(#clip960)" d="M1695.1 1072.23 L1724.34 1072.23 L1724.34 1076.17 L1712.07 1076.17 L1712.07 1106.79 L1707.37 1106.79 L1707.37 1076.17 L1695.1 1076.17 L1695.1 1072.23 Z" fill="#000000" fill-rule="nonzero" fill-opacity="1" /><path clip-path="url(#clip960)" d="M1732.6 1093.76 Q1727.44 1093.76 1725.45 1094.94 Q1723.46 1096.12 1723.46 1098.97 Q1723.46 1101.24 1724.94 1102.58 Q1726.44 1103.9 1729.01 1103.9 Q1732.55 1103.9 1734.68 1101.4 Q1736.84 1098.88 1736.84 1094.71 L1736.84 1093.76 L1732.6 1093.76 M1741.09 1092 L1741.09 1106.79 L1736.84 1106.79 L1736.84 1102.86 Q1735.38 1105.22 1733.2 1106.35 Q1731.03 1107.46 1727.88 1107.46 Q1723.9 1107.46 1721.53 1105.24 Q1719.2 1103 1719.2 1099.25 Q1719.2 1094.87 1722.11 1092.65 Q1725.05 1090.43 1730.86 1090.43 L1736.84 1090.43 L1736.84 1090.01 Q1736.84 1087.07 1734.89 1085.47 Q1732.97 1083.85 1729.47 1083.85 Q1727.25 1083.85 1725.15 1084.38 Q1723.04 1084.92 1721.1 1085.98 L1721.1 1082.05 Q1723.43 1081.14 1725.63 1080.7 Q1727.83 1080.24 1729.91 1080.24 Q1735.54 1080.24 1738.32 1083.16 Q1741.09 1086.07 1741.09 1092 Z" fill="#000000" fill-rule="nonzero" fill-opacity="1" /><path clip-path="url(#clip960)" d="M1768.48 1093.85 Q1768.48 1089.15 1766.53 1086.49 Q1764.61 1083.81 1761.23 1083.81 Q1757.85 1083.81 1755.91 1086.49 Q1753.99 1089.15 1753.99 1093.85 Q1753.99 1098.55 1755.91 1101.24 Q1757.85 1103.9 1761.23 1103.9 Q1764.61 1103.9 1766.53 1101.24 Q1768.48 1098.55 1768.48 1093.85 M1753.99 1084.8 Q1755.33 1082.49 1757.37 1081.38 Q1759.43 1080.24 1762.28 1080.24 Q1767 1080.24 1769.94 1083.99 Q1772.9 1087.74 1772.9 1093.85 Q1772.9 1099.96 1769.94 1103.71 Q1767 1107.46 1762.28 1107.46 Q1759.43 1107.46 1757.37 1106.35 Q1755.33 1105.22 1753.99 1102.9 L1753.99 1106.79 L1749.71 1106.79 L1749.71 1070.77 L1753.99 1070.77 L1753.99 1084.8 Z" fill="#000000" fill-rule="nonzero" fill-opacity="1" /><path clip-path="url(#clip960)" d="M1784.82 1076.07 L1784.82 1089.06 L1790.7 1089.06 Q1793.97 1089.06 1795.75 1087.37 Q1797.53 1085.68 1797.53 1082.56 Q1797.53 1079.45 1795.75 1077.76 Q1793.97 1076.07 1790.7 1076.07 L1784.82 1076.07 M1780.15 1072.23 L1790.7 1072.23 Q1796.51 1072.23 1799.47 1074.87 Q1802.46 1077.49 1802.46 1082.56 Q1802.46 1087.67 1799.47 1090.29 Q1796.51 1092.9 1790.7 1092.9 L1784.82 1092.9 L1784.82 1106.79 L1780.15 1106.79 L1780.15 1072.23 Z" fill="#000000" fill-rule="nonzero" fill-opacity="1" /><path clip-path="url(#clip960)" d="M1808.73 1072.23 L1828.59 1072.23 L1828.59 1076.17 L1813.41 1076.17 L1813.41 1086.35 L1827.11 1086.35 L1827.11 1090.29 L1813.41 1090.29 L1813.41 1106.79 L1808.73 1106.79 L1808.73 1072.23 Z" fill="#000000" fill-rule="nonzero" fill-opacity="1" /><path clip-path="url(#clip960)" d="M1836 1072.23 L1842.3 1072.23 L1857.62 1101.14 L1857.62 1072.23 L1862.16 1072.23 L1862.16 1106.79 L1855.86 1106.79 L1840.54 1077.88 L1840.54 1106.79 L1836 1106.79 L1836 1072.23 Z" fill="#000000" fill-rule="nonzero" fill-opacity="1" /><polyline clip-path="url(#clip960)" style="stroke:#d52628; stroke-linecap:round; stroke-linejoin:round; stroke-width:20; stroke-opacity:1; fill:none" points="1551.21,1141.35 1674.54,1141.35 "/>
<circle clip-path="url(#clip960)" cx="1612.88" cy="1141.35" r="17.1297" fill="#d52628" fill-rule="evenodd" fill-opacity="1" stroke="#000000" stroke-opacity="1" stroke-width="3.15077"/>
<path clip-path="url(#clip960)" d="M1695.1 1124.07 L1699.78 1124.07 L1699.78 1138.24 L1716.77 1138.24 L1716.77 1124.07 L1721.44 1124.07 L1721.44 1158.63 L1716.77 1158.63 L1716.77 1142.17 L1699.78 1142.17 L1699.78 1158.63 L1695.1 1158.63 L1695.1 1124.07 Z" fill="#000000" fill-rule="nonzero" fill-opacity="1" /><path clip-path="url(#clip960)" d="M1741.35 1161.04 Q1739.54 1165.67 1737.83 1167.08 Q1736.12 1168.49 1733.25 1168.49 L1729.85 1168.49 L1729.85 1164.93 L1732.35 1164.93 Q1734.1 1164.93 1735.08 1164.09 Q1736.05 1163.26 1737.23 1160.16 L1737.99 1158.22 L1727.51 1132.71 L1732.02 1132.71 L1740.12 1152.98 L1748.22 1132.71 L1752.74 1132.71 L1741.35 1161.04 Z" fill="#000000" fill-rule="nonzero" fill-opacity="1" /><path clip-path="url(#clip960)" d="M1762.74 1154.74 L1762.74 1168.49 L1758.46 1168.49 L1758.46 1132.71 L1762.74 1132.71 L1762.74 1136.64 Q1764.08 1134.33 1766.12 1133.22 Q1768.18 1132.08 1771.03 1132.08 Q1775.75 1132.08 1778.69 1135.83 Q1781.65 1139.58 1781.65 1145.69 Q1781.65 1151.8 1778.69 1155.55 Q1775.75 1159.3 1771.03 1159.3 Q1768.18 1159.3 1766.12 1158.19 Q1764.08 1157.06 1762.74 1154.74 M1777.23 1145.69 Q1777.23 1140.99 1775.28 1138.33 Q1773.36 1135.65 1769.98 1135.65 Q1766.6 1135.65 1764.66 1138.33 Q1762.74 1140.99 1762.74 1145.69 Q1762.74 1150.39 1764.66 1153.08 Q1766.6 1155.74 1769.98 1155.74 Q1773.36 1155.74 1775.28 1153.08 Q1777.23 1150.39 1777.23 1145.69 Z" fill="#000000" fill-rule="nonzero" fill-opacity="1" /><path clip-path="url(#clip960)" d="M1810.89 1144.6 L1810.89 1146.69 L1791.3 1146.69 Q1791.58 1151.09 1793.94 1153.4 Q1796.33 1155.69 1800.56 1155.69 Q1803.02 1155.69 1805.31 1155.09 Q1807.62 1154.49 1809.89 1153.28 L1809.89 1157.31 Q1807.6 1158.28 1805.19 1158.79 Q1802.78 1159.3 1800.31 1159.3 Q1794.1 1159.3 1790.47 1155.69 Q1786.86 1152.08 1786.86 1145.92 Q1786.86 1139.56 1790.28 1135.83 Q1793.73 1132.08 1799.57 1132.08 Q1804.8 1132.08 1807.83 1135.46 Q1810.89 1138.82 1810.89 1144.6 M1806.63 1143.35 Q1806.58 1139.86 1804.66 1137.78 Q1802.76 1135.69 1799.61 1135.69 Q1796.05 1135.69 1793.9 1137.71 Q1791.77 1139.72 1791.44 1143.38 L1806.63 1143.35 Z" fill="#000000" fill-rule="nonzero" fill-opacity="1" /><path clip-path="url(#clip960)" d="M1832.9 1136.69 Q1832.18 1136.27 1831.33 1136.09 Q1830.49 1135.88 1829.47 1135.88 Q1825.86 1135.88 1823.92 1138.24 Q1822 1140.58 1822 1144.97 L1822 1158.63 L1817.71 1158.63 L1817.71 1132.71 L1822 1132.71 L1822 1136.73 Q1823.34 1134.37 1825.49 1133.24 Q1827.65 1132.08 1830.72 1132.08 Q1831.16 1132.08 1831.7 1132.15 Q1832.23 1132.2 1832.88 1132.31 L1832.9 1136.69 Z" fill="#000000" fill-rule="nonzero" fill-opacity="1" /><path clip-path="url(#clip960)" d="M1837.55 1124.07 L1857.41 1124.07 L1857.41 1128.01 L1842.23 1128.01 L1842.23 1138.19 L1855.93 1138.19 L1855.93 1142.13 L1842.23 1142.13 L1842.23 1158.63 L1837.55 1158.63 L1837.55 1124.07 Z" fill="#000000" fill-rule="nonzero" fill-opacity="1" /><path clip-path="url(#clip960)" d="M1872.07 1145.6 Q1866.9 1145.6 1864.91 1146.78 Q1862.92 1147.96 1862.92 1150.81 Q1862.92 1153.08 1864.4 1154.42 Q1865.91 1155.74 1868.48 1155.74 Q1872.02 1155.74 1874.15 1153.24 Q1876.3 1150.72 1876.3 1146.55 L1876.3 1145.6 L1872.07 1145.6 M1880.56 1143.84 L1880.56 1158.63 L1876.3 1158.63 L1876.3 1154.7 Q1874.84 1157.06 1872.67 1158.19 Q1870.49 1159.3 1867.34 1159.3 Q1863.36 1159.3 1861 1157.08 Q1858.66 1154.84 1858.66 1151.09 Q1858.66 1146.71 1861.58 1144.49 Q1864.52 1142.27 1870.33 1142.27 L1876.3 1142.27 L1876.3 1141.85 Q1876.3 1138.91 1874.36 1137.31 Q1872.44 1135.69 1868.94 1135.69 Q1866.72 1135.69 1864.61 1136.22 Q1862.51 1136.76 1860.56 1137.82 L1860.56 1133.89 Q1862.9 1132.98 1865.1 1132.54 Q1867.3 1132.08 1869.38 1132.08 Q1875.01 1132.08 1877.78 1135 Q1880.56 1137.91 1880.56 1143.84 Z" fill="#000000" fill-rule="nonzero" fill-opacity="1" /><path clip-path="url(#clip960)" d="M1905.86 1133.47 L1905.86 1137.5 Q1904.06 1136.57 1902.11 1136.11 Q1900.17 1135.65 1898.08 1135.65 Q1894.91 1135.65 1893.32 1136.62 Q1891.74 1137.59 1891.74 1139.53 Q1891.74 1141.02 1892.88 1141.87 Q1894.01 1142.71 1897.44 1143.47 L1898.9 1143.79 Q1903.43 1144.77 1905.33 1146.55 Q1907.25 1148.31 1907.25 1151.48 Q1907.25 1155.09 1904.38 1157.2 Q1901.53 1159.3 1896.53 1159.3 Q1894.45 1159.3 1892.18 1158.89 Q1889.94 1158.49 1887.44 1157.68 L1887.44 1153.28 Q1889.8 1154.51 1892.09 1155.14 Q1894.38 1155.74 1896.63 1155.74 Q1899.64 1155.74 1901.26 1154.72 Q1902.88 1153.68 1902.88 1151.8 Q1902.88 1150.07 1901.7 1149.14 Q1900.54 1148.22 1896.58 1147.36 L1895.1 1147.01 Q1891.14 1146.18 1889.38 1144.47 Q1887.62 1142.73 1887.62 1139.72 Q1887.62 1136.06 1890.21 1134.07 Q1892.81 1132.08 1897.58 1132.08 Q1899.94 1132.08 1902.02 1132.43 Q1904.1 1132.78 1905.86 1133.47 Z" fill="#000000" fill-rule="nonzero" fill-opacity="1" /><path clip-path="url(#clip960)" d="M1918.25 1125.34 L1918.25 1132.71 L1927.02 1132.71 L1927.02 1136.02 L1918.25 1136.02 L1918.25 1150.09 Q1918.25 1153.26 1919.1 1154.16 Q1919.98 1155.07 1922.64 1155.07 L1927.02 1155.07 L1927.02 1158.63 L1922.64 1158.63 Q1917.71 1158.63 1915.84 1156.8 Q1913.96 1154.95 1913.96 1150.09 L1913.96 1136.02 L1910.84 1136.02 L1910.84 1132.71 L1913.96 1132.71 L1913.96 1125.34 L1918.25 1125.34 Z" fill="#000000" fill-rule="nonzero" fill-opacity="1" /><polyline clip-path="url(#clip960)" style="stroke:#9466bd; stroke-linecap:round; stroke-linejoin:round; stroke-width:20; stroke-opacity:1; fill:none" points="1551.21,1193.19 1674.54,1193.19 "/>
<circle clip-path="url(#clip960)" cx="1612.88" cy="1193.19" r="17.1297" fill="#9466bd" fill-rule="evenodd" fill-opacity="1" stroke="#000000" stroke-opacity="1" stroke-width="3.15077"/>
<path clip-path="url(#clip960)" d="M1695.1 1175.91 L1699.78 1175.91 L1699.78 1206.54 L1716.6 1206.54 L1716.6 1210.47 L1695.1 1210.47 L1695.1 1175.91 Z" fill="#000000" fill-rule="nonzero" fill-opacity="1" /><path clip-path="url(#clip960)" d="M1730.54 1187.53 Q1727.11 1187.53 1725.12 1190.22 Q1723.13 1192.88 1723.13 1197.53 Q1723.13 1202.18 1725.1 1204.87 Q1727.09 1207.53 1730.54 1207.53 Q1733.94 1207.53 1735.93 1204.85 Q1737.92 1202.16 1737.92 1197.53 Q1737.92 1192.93 1735.93 1190.24 Q1733.94 1187.53 1730.54 1187.53 M1730.54 1183.92 Q1736.1 1183.92 1739.27 1187.53 Q1742.44 1191.14 1742.44 1197.53 Q1742.44 1203.9 1739.27 1207.53 Q1736.1 1211.14 1730.54 1211.14 Q1724.96 1211.14 1721.79 1207.53 Q1718.64 1203.9 1718.64 1197.53 Q1718.64 1191.14 1721.79 1187.53 Q1724.96 1183.92 1730.54 1183.92 Z" fill="#000000" fill-rule="nonzero" fill-opacity="1" /><path clip-path="url(#clip960)" d="M1766.56 1197.21 Q1766.56 1192.58 1764.64 1190.03 Q1762.74 1187.49 1759.29 1187.49 Q1755.86 1187.49 1753.94 1190.03 Q1752.04 1192.58 1752.04 1197.21 Q1752.04 1201.81 1753.94 1204.36 Q1755.86 1206.91 1759.29 1206.91 Q1762.74 1206.91 1764.64 1204.36 Q1766.56 1201.81 1766.56 1197.21 M1770.82 1207.25 Q1770.82 1213.87 1767.88 1217.09 Q1764.94 1220.33 1758.87 1220.33 Q1756.63 1220.33 1754.64 1219.99 Q1752.65 1219.66 1750.77 1218.97 L1750.77 1214.82 Q1752.65 1215.84 1754.47 1216.33 Q1756.3 1216.81 1758.2 1216.81 Q1762.39 1216.81 1764.47 1214.62 Q1766.56 1212.44 1766.56 1208.02 L1766.56 1205.91 Q1765.24 1208.2 1763.18 1209.34 Q1761.12 1210.47 1758.25 1210.47 Q1753.48 1210.47 1750.56 1206.84 Q1747.65 1203.2 1747.65 1197.21 Q1747.65 1191.19 1750.56 1187.56 Q1753.48 1183.92 1758.25 1183.92 Q1761.12 1183.92 1763.18 1185.06 Q1765.24 1186.19 1766.56 1188.48 L1766.56 1184.55 L1770.82 1184.55 L1770.82 1207.25 Z" fill="#000000" fill-rule="nonzero" fill-opacity="1" /><path clip-path="url(#clip960)" d="M1779.59 1184.55 L1783.85 1184.55 L1783.85 1210.47 L1779.59 1210.47 L1779.59 1184.55 M1779.59 1174.45 L1783.85 1174.45 L1783.85 1179.85 L1779.59 1179.85 L1779.59 1174.45 Z" fill="#000000" fill-rule="nonzero" fill-opacity="1" /><path clip-path="url(#clip960)" d="M1809.29 1185.31 L1809.29 1189.34 Q1807.48 1188.41 1805.54 1187.95 Q1803.59 1187.49 1801.51 1187.49 Q1798.34 1187.49 1796.74 1188.46 Q1795.17 1189.43 1795.17 1191.37 Q1795.17 1192.86 1796.3 1193.71 Q1797.44 1194.55 1800.86 1195.31 L1802.32 1195.63 Q1806.86 1196.61 1808.76 1198.39 Q1810.68 1200.15 1810.68 1203.32 Q1810.68 1206.93 1807.81 1209.04 Q1804.96 1211.14 1799.96 1211.14 Q1797.88 1211.14 1795.61 1210.73 Q1793.36 1210.33 1790.86 1209.52 L1790.86 1205.12 Q1793.22 1206.35 1795.52 1206.98 Q1797.81 1207.58 1800.05 1207.58 Q1803.06 1207.58 1804.68 1206.56 Q1806.3 1205.52 1806.3 1203.64 Q1806.3 1201.91 1805.12 1200.98 Q1803.97 1200.06 1800.01 1199.2 L1798.53 1198.85 Q1794.57 1198.02 1792.81 1196.31 Q1791.05 1194.57 1791.05 1191.56 Q1791.05 1187.9 1793.64 1185.91 Q1796.23 1183.92 1801 1183.92 Q1803.36 1183.92 1805.45 1184.27 Q1807.53 1184.62 1809.29 1185.31 Z" fill="#000000" fill-rule="nonzero" fill-opacity="1" /><path clip-path="url(#clip960)" d="M1821.67 1177.18 L1821.67 1184.55 L1830.45 1184.55 L1830.45 1187.86 L1821.67 1187.86 L1821.67 1201.93 Q1821.67 1205.1 1822.53 1206 Q1823.41 1206.91 1826.07 1206.91 L1830.45 1206.91 L1830.45 1210.47 L1826.07 1210.47 Q1821.14 1210.47 1819.27 1208.64 Q1817.39 1206.79 1817.39 1201.93 L1817.39 1187.86 L1814.27 1187.86 L1814.27 1184.55 L1817.39 1184.55 L1817.39 1177.18 L1821.67 1177.18 Z" fill="#000000" fill-rule="nonzero" fill-opacity="1" /><path clip-path="url(#clip960)" d="M1836.05 1184.55 L1840.31 1184.55 L1840.31 1210.47 L1836.05 1210.47 L1836.05 1184.55 M1836.05 1174.45 L1840.31 1174.45 L1840.31 1179.85 L1836.05 1179.85 L1836.05 1174.45 Z" fill="#000000" fill-rule="nonzero" fill-opacity="1" /><path clip-path="url(#clip960)" d="M1867.88 1185.54 L1867.88 1189.52 Q1866.07 1188.53 1864.24 1188.04 Q1862.44 1187.53 1860.59 1187.53 Q1856.44 1187.53 1854.15 1190.17 Q1851.86 1192.79 1851.86 1197.53 Q1851.86 1202.28 1854.15 1204.92 Q1856.44 1207.53 1860.59 1207.53 Q1862.44 1207.53 1864.24 1207.05 Q1866.07 1206.54 1867.88 1205.54 L1867.88 1209.48 Q1866.09 1210.31 1864.17 1210.73 Q1862.27 1211.14 1860.12 1211.14 Q1854.27 1211.14 1850.82 1207.46 Q1847.37 1203.78 1847.37 1197.53 Q1847.37 1191.19 1850.84 1187.56 Q1854.34 1183.92 1860.4 1183.92 Q1862.37 1183.92 1864.24 1184.34 Q1866.12 1184.73 1867.88 1185.54 Z" fill="#000000" fill-rule="nonzero" fill-opacity="1" /><path clip-path="url(#clip960)" d="M1905.38 1188.53 Q1904.66 1188.11 1903.8 1187.93 Q1902.97 1187.72 1901.95 1187.72 Q1898.34 1187.72 1896.4 1190.08 Q1894.47 1192.42 1894.47 1196.81 L1894.47 1210.47 L1890.19 1210.47 L1890.19 1184.55 L1894.47 1184.55 L1894.47 1188.57 Q1895.82 1186.21 1897.97 1185.08 Q1900.12 1183.92 1903.2 1183.92 Q1903.64 1183.92 1904.17 1183.99 Q1904.71 1184.04 1905.35 1184.15 L1905.38 1188.53 Z" fill="#000000" fill-rule="nonzero" fill-opacity="1" /><path clip-path="url(#clip960)" d="M1930.98 1196.44 L1930.98 1198.53 L1911.39 1198.53 Q1911.67 1202.93 1914.03 1205.24 Q1916.42 1207.53 1920.65 1207.53 Q1923.11 1207.53 1925.4 1206.93 Q1927.71 1206.33 1929.98 1205.12 L1929.98 1209.15 Q1927.69 1210.12 1925.28 1210.63 Q1922.88 1211.14 1920.4 1211.14 Q1914.2 1211.14 1910.56 1207.53 Q1906.95 1203.92 1906.95 1197.76 Q1906.95 1191.4 1910.38 1187.67 Q1913.83 1183.92 1919.66 1183.92 Q1924.89 1183.92 1927.92 1187.3 Q1930.98 1190.66 1930.98 1196.44 M1926.72 1195.19 Q1926.67 1191.7 1924.75 1189.62 Q1922.85 1187.53 1919.71 1187.53 Q1916.14 1187.53 1913.99 1189.55 Q1911.86 1191.56 1911.53 1195.22 L1926.72 1195.19 Z" fill="#000000" fill-rule="nonzero" fill-opacity="1" /><path clip-path="url(#clip960)" d="M1955.03 1197.21 Q1955.03 1192.58 1953.11 1190.03 Q1951.21 1187.49 1947.76 1187.49 Q1944.33 1187.49 1942.41 1190.03 Q1940.52 1192.58 1940.52 1197.21 Q1940.52 1201.81 1942.41 1204.36 Q1944.33 1206.91 1947.76 1206.91 Q1951.21 1206.91 1953.11 1204.36 Q1955.03 1201.81 1955.03 1197.21 M1959.29 1207.25 Q1959.29 1213.87 1956.35 1217.09 Q1953.41 1220.33 1947.34 1220.33 Q1945.1 1220.33 1943.11 1219.99 Q1941.12 1219.66 1939.24 1218.97 L1939.24 1214.82 Q1941.12 1215.84 1942.95 1216.33 Q1944.77 1216.81 1946.67 1216.81 Q1950.86 1216.81 1952.95 1214.62 Q1955.03 1212.44 1955.03 1208.02 L1955.03 1205.91 Q1953.71 1208.2 1951.65 1209.34 Q1949.59 1210.47 1946.72 1210.47 Q1941.95 1210.47 1939.03 1206.84 Q1936.12 1203.2 1936.12 1197.21 Q1936.12 1191.19 1939.03 1187.56 Q1941.95 1183.92 1946.72 1183.92 Q1949.59 1183.92 1951.65 1185.06 Q1953.71 1186.19 1955.03 1188.48 L1955.03 1184.55 L1959.29 1184.55 L1959.29 1207.25 Z" fill="#000000" fill-rule="nonzero" fill-opacity="1" /><path clip-path="url(#clip960)" d="M1983.08 1188.53 Q1982.37 1188.11 1981.51 1187.93 Q1980.68 1187.72 1979.66 1187.72 Q1976.05 1187.72 1974.1 1190.08 Q1972.18 1192.42 1972.18 1196.81 L1972.18 1210.47 L1967.9 1210.47 L1967.9 1184.55 L1972.18 1184.55 L1972.18 1188.57 Q1973.52 1186.21 1975.68 1185.08 Q1977.83 1183.92 1980.91 1183.92 Q1981.35 1183.92 1981.88 1183.99 Q1982.41 1184.04 1983.06 1184.15 L1983.08 1188.53 Z" fill="#000000" fill-rule="nonzero" fill-opacity="1" /><path clip-path="url(#clip960)" d="M2008.69 1196.44 L2008.69 1198.53 L1989.1 1198.53 Q1989.38 1202.93 1991.74 1205.24 Q1994.13 1207.53 1998.36 1207.53 Q2000.82 1207.53 2003.11 1206.93 Q2005.42 1206.33 2007.69 1205.12 L2007.69 1209.15 Q2005.4 1210.12 2002.99 1210.63 Q2000.58 1211.14 1998.11 1211.14 Q1991.9 1211.14 1988.27 1207.53 Q1984.66 1203.92 1984.66 1197.76 Q1984.66 1191.4 1988.08 1187.67 Q1991.53 1183.92 1997.37 1183.92 Q2002.6 1183.92 2005.63 1187.3 Q2008.69 1190.66 2008.69 1196.44 M2004.43 1195.19 Q2004.38 1191.7 2002.46 1189.62 Q2000.56 1187.53 1997.41 1187.53 Q1993.85 1187.53 1991.7 1189.55 Q1989.57 1191.56 1989.24 1195.22 L2004.43 1195.19 Z" fill="#000000" fill-rule="nonzero" fill-opacity="1" /><path clip-path="url(#clip960)" d="M2032.2 1185.31 L2032.2 1189.34 Q2030.4 1188.41 2028.45 1187.95 Q2026.51 1187.49 2024.43 1187.49 Q2021.26 1187.49 2019.66 1188.46 Q2018.08 1189.43 2018.08 1191.37 Q2018.08 1192.86 2019.22 1193.71 Q2020.35 1194.55 2023.78 1195.31 L2025.24 1195.63 Q2029.77 1196.61 2031.67 1198.39 Q2033.59 1200.15 2033.59 1203.32 Q2033.59 1206.93 2030.72 1209.04 Q2027.88 1211.14 2022.88 1211.14 Q2020.79 1211.14 2018.52 1210.73 Q2016.28 1210.33 2013.78 1209.52 L2013.78 1205.12 Q2016.14 1206.35 2018.43 1206.98 Q2020.72 1207.58 2022.97 1207.58 Q2025.98 1207.58 2027.6 1206.56 Q2029.22 1205.52 2029.22 1203.64 Q2029.22 1201.91 2028.04 1200.98 Q2026.88 1200.06 2022.92 1199.2 L2021.44 1198.85 Q2017.48 1198.02 2015.72 1196.31 Q2013.96 1194.57 2013.96 1191.56 Q2013.96 1187.9 2016.56 1185.91 Q2019.15 1183.92 2023.92 1183.92 Q2026.28 1183.92 2028.36 1184.27 Q2030.45 1184.62 2032.2 1185.31 Z" fill="#000000" fill-rule="nonzero" fill-opacity="1" /><path clip-path="url(#clip960)" d="M2056.9 1185.31 L2056.9 1189.34 Q2055.1 1188.41 2053.15 1187.95 Q2051.21 1187.49 2049.13 1187.49 Q2045.95 1187.49 2044.36 1188.46 Q2042.78 1189.43 2042.78 1191.37 Q2042.78 1192.86 2043.92 1193.71 Q2045.05 1194.55 2048.48 1195.31 L2049.94 1195.63 Q2054.47 1196.61 2056.37 1198.39 Q2058.29 1200.15 2058.29 1203.32 Q2058.29 1206.93 2055.42 1209.04 Q2052.57 1211.14 2047.57 1211.14 Q2045.49 1211.14 2043.22 1210.73 Q2040.98 1210.33 2038.48 1209.52 L2038.48 1205.12 Q2040.84 1206.35 2043.13 1206.98 Q2045.42 1207.58 2047.67 1207.58 Q2050.68 1207.58 2052.3 1206.56 Q2053.92 1205.52 2053.92 1203.64 Q2053.92 1201.91 2052.74 1200.98 Q2051.58 1200.06 2047.62 1199.2 L2046.14 1198.85 Q2042.18 1198.02 2040.42 1196.31 Q2038.66 1194.57 2038.66 1191.56 Q2038.66 1187.9 2041.26 1185.91 Q2043.85 1183.92 2048.62 1183.92 Q2050.98 1183.92 2053.06 1184.27 Q2055.14 1184.62 2056.9 1185.31 Z" fill="#000000" fill-rule="nonzero" fill-opacity="1" /><path clip-path="url(#clip960)" d="M2065.07 1184.55 L2069.33 1184.55 L2069.33 1210.47 L2065.07 1210.47 L2065.07 1184.55 M2065.07 1174.45 L2069.33 1174.45 L2069.33 1179.85 L2065.07 1179.85 L2065.07 1174.45 Z" fill="#000000" fill-rule="nonzero" fill-opacity="1" /><path clip-path="url(#clip960)" d="M2088.29 1187.53 Q2084.87 1187.53 2082.88 1190.22 Q2080.88 1192.88 2080.88 1197.53 Q2080.88 1202.18 2082.85 1204.87 Q2084.84 1207.53 2088.29 1207.53 Q2091.69 1207.53 2093.69 1204.85 Q2095.68 1202.16 2095.68 1197.53 Q2095.68 1192.93 2093.69 1190.24 Q2091.69 1187.53 2088.29 1187.53 M2088.29 1183.92 Q2093.85 1183.92 2097.02 1187.53 Q2100.19 1191.14 2100.19 1197.53 Q2100.19 1203.9 2097.02 1207.53 Q2093.85 1211.14 2088.29 1211.14 Q2082.71 1211.14 2079.54 1207.53 Q2076.39 1203.9 2076.39 1197.53 Q2076.39 1191.14 2079.54 1187.53 Q2082.71 1183.92 2088.29 1183.92 Z" fill="#000000" fill-rule="nonzero" fill-opacity="1" /><path clip-path="url(#clip960)" d="M2128.8 1194.82 L2128.8 1210.47 L2124.54 1210.47 L2124.54 1194.96 Q2124.54 1191.28 2123.11 1189.45 Q2121.67 1187.62 2118.8 1187.62 Q2115.35 1187.62 2113.36 1189.82 Q2111.37 1192.02 2111.37 1195.82 L2111.37 1210.47 L2107.09 1210.47 L2107.09 1184.55 L2111.37 1184.55 L2111.37 1188.57 Q2112.9 1186.24 2114.96 1185.08 Q2117.04 1183.92 2119.75 1183.92 Q2124.22 1183.92 2126.51 1186.7 Q2128.8 1189.45 2128.8 1194.82 Z" fill="#000000" fill-rule="nonzero" fill-opacity="1" /></svg>
