<?xml version="1.0" encoding="utf-8"?>
<svg xmlns="http://www.w3.org/2000/svg" xmlns:xlink="http://www.w3.org/1999/xlink" width="600" height="400" viewBox="0 0 2400 1600">
<defs>
  <clipPath id="clip680">
    <rect x="0" y="0" width="2400" height="1600"/>
  </clipPath>
</defs>
<path clip-path="url(#clip680)" d="M0 1600 L2400 1600 L2400 0 L0 0  Z" fill="#ffffff" fill-rule="evenodd" fill-opacity="1"/>
<defs>
  <clipPath id="clip681">
    <rect x="235" y="47" width="2118" height="1507"/>
  </clipPath>
</defs>
<path clip-path="url(#clip680)" d="M205.121 1423.18 L2352.76 1423.18 L2352.76 47.2441 L205.121 47.2441  Z" fill="#ffffff" fill-rule="evenodd" fill-opacity="1"/>
<defs>
  <clipPath id="clip682">
    <rect x="205" y="47" width="2149" height="1377"/>
  </clipPath>
</defs>
<polyline clip-path="url(#clip682)" style="stroke:#000000; stroke-linecap:round; stroke-linejoin:round; stroke-width:2; stroke-opacity:0.1; fill:none" points="560.289,1423.18 560.289,47.2441 "/>
<polyline clip-path="url(#clip682)" style="stroke:#000000; stroke-linecap:round; stroke-linejoin:round; stroke-width:2; stroke-opacity:0.1; fill:none" points="993.211,1423.18 993.211,47.2441 "/>
<polyline clip-path="url(#clip682)" style="stroke:#000000; stroke-linecap:round; stroke-linejoin:round; stroke-width:2; stroke-opacity:0.1; fill:none" points="1426.13,1423.18 1426.13,47.2441 "/>
<polyline clip-path="url(#clip682)" style="stroke:#000000; stroke-linecap:round; stroke-linejoin:round; stroke-width:2; stroke-opacity:0.1; fill:none" points="1859.05,1423.18 1859.05,47.2441 "/>
<polyline clip-path="url(#clip682)" style="stroke:#000000; stroke-linecap:round; stroke-linejoin:round; stroke-width:2; stroke-opacity:0.1; fill:none" points="2291.97,1423.18 2291.97,47.2441 "/>
<polyline clip-path="url(#clip682)" style="stroke:#000000; stroke-linecap:round; stroke-linejoin:round; stroke-width:2; stroke-opacity:0.1; fill:none" points="205.121,1423.18 2352.76,1423.18 "/>
<polyline clip-path="url(#clip682)" style="stroke:#000000; stroke-linecap:round; stroke-linejoin:round; stroke-width:2; stroke-opacity:0.1; fill:none" points="205.121,1226.62 2352.76,1226.62 "/>
<polyline clip-path="url(#clip682)" style="stroke:#000000; stroke-linecap:round; stroke-linejoin:round; stroke-width:2; stroke-opacity:0.1; fill:none" points="205.121,1030.06 2352.76,1030.06 "/>
<polyline clip-path="url(#clip682)" style="stroke:#000000; stroke-linecap:round; stroke-linejoin:round; stroke-width:2; stroke-opacity:0.1; fill:none" points="205.121,833.493 2352.76,833.493 "/>
<polyline clip-path="url(#clip682)" style="stroke:#000000; stroke-linecap:round; stroke-linejoin:round; stroke-width:2; stroke-opacity:0.1; fill:none" points="205.121,636.931 2352.76,636.931 "/>
<polyline clip-path="url(#clip682)" style="stroke:#000000; stroke-linecap:round; stroke-linejoin:round; stroke-width:2; stroke-opacity:0.1; fill:none" points="205.121,440.369 2352.76,440.369 "/>
<polyline clip-path="url(#clip682)" style="stroke:#000000; stroke-linecap:round; stroke-linejoin:round; stroke-width:2; stroke-opacity:0.1; fill:none" points="205.121,243.806 2352.76,243.806 "/>
<polyline clip-path="url(#clip682)" style="stroke:#000000; stroke-linecap:round; stroke-linejoin:round; stroke-width:2; stroke-opacity:0.1; fill:none" points="205.121,47.2441 2352.76,47.2441 "/>
<polyline clip-path="url(#clip680)" style="stroke:#000000; stroke-linecap:round; stroke-linejoin:round; stroke-width:4; stroke-opacity:1; fill:none" points="205.121,1423.18 2352.76,1423.18 "/>
<polyline clip-path="url(#clip680)" style="stroke:#000000; stroke-linecap:round; stroke-linejoin:round; stroke-width:4; stroke-opacity:1; fill:none" points="560.289,1423.18 560.289,1404.28 "/>
<polyline clip-path="url(#clip680)" style="stroke:#000000; stroke-linecap:round; stroke-linejoin:round; stroke-width:4; stroke-opacity:1; fill:none" points="993.211,1423.18 993.211,1404.28 "/>
<polyline clip-path="url(#clip680)" style="stroke:#000000; stroke-linecap:round; stroke-linejoin:round; stroke-width:4; stroke-opacity:1; fill:none" points="1426.13,1423.18 1426.13,1404.28 "/>
<polyline clip-path="url(#clip680)" style="stroke:#000000; stroke-linecap:round; stroke-linejoin:round; stroke-width:4; stroke-opacity:1; fill:none" points="1859.05,1423.18 1859.05,1404.28 "/>
<polyline clip-path="url(#clip680)" style="stroke:#000000; stroke-linecap:round; stroke-linejoin:round; stroke-width:4; stroke-opacity:1; fill:none" points="2291.97,1423.18 2291.97,1404.28 "/>
<path clip-path="url(#clip680)" d="M519.896 1481.64 L527.535 1481.64 L527.535 1455.28 L519.225 1456.95 L519.225 1452.69 L527.489 1451.02 L532.165 1451.02 L532.165 1481.64 L539.803 1481.64 L539.803 1485.58 L519.896 1485.58 L519.896 1481.64 Z" fill="#000000" fill-rule="nonzero" fill-opacity="1" /><path clip-path="url(#clip680)" d="M559.248 1454.1 Q555.637 1454.1 553.808 1457.66 Q552.002 1461.2 552.002 1468.33 Q552.002 1475.44 553.808 1479.01 Q555.637 1482.55 559.248 1482.55 Q562.882 1482.55 564.688 1479.01 Q566.516 1475.44 566.516 1468.33 Q566.516 1461.2 564.688 1457.66 Q562.882 1454.1 559.248 1454.1 M559.248 1450.39 Q565.058 1450.39 568.113 1455 Q571.192 1459.58 571.192 1468.33 Q571.192 1477.06 568.113 1481.67 Q565.058 1486.25 559.248 1486.25 Q553.438 1486.25 550.359 1481.67 Q547.303 1477.06 547.303 1468.33 Q547.303 1459.58 550.359 1455 Q553.438 1450.39 559.248 1450.39 Z" fill="#000000" fill-rule="nonzero" fill-opacity="1" /><path clip-path="url(#clip680)" d="M589.41 1454.1 Q585.799 1454.1 583.97 1457.66 Q582.164 1461.2 582.164 1468.33 Q582.164 1475.44 583.97 1479.01 Q585.799 1482.55 589.41 1482.55 Q593.044 1482.55 594.849 1479.01 Q596.678 1475.44 596.678 1468.33 Q596.678 1461.2 594.849 1457.66 Q593.044 1454.1 589.41 1454.1 M589.41 1450.39 Q595.22 1450.39 598.275 1455 Q601.354 1459.58 601.354 1468.33 Q601.354 1477.06 598.275 1481.67 Q595.22 1486.25 589.41 1486.25 Q583.599 1486.25 580.521 1481.67 Q577.465 1477.06 577.465 1468.33 Q577.465 1459.58 580.521 1455 Q583.599 1450.39 589.41 1450.39 Z" fill="#000000" fill-rule="nonzero" fill-opacity="1" /><path clip-path="url(#clip680)" d="M956.903 1481.64 L973.222 1481.64 L973.222 1485.58 L951.278 1485.58 L951.278 1481.64 Q953.94 1478.89 958.523 1474.26 Q963.13 1469.61 964.31 1468.27 Q966.556 1465.74 967.435 1464.01 Q968.338 1462.25 968.338 1460.56 Q968.338 1457.8 966.394 1456.07 Q964.472 1454.33 961.37 1454.33 Q959.171 1454.33 956.718 1455.09 Q954.287 1455.86 951.509 1457.41 L951.509 1452.69 Q954.333 1451.55 956.787 1450.97 Q959.241 1450.39 961.278 1450.39 Q966.648 1450.39 969.843 1453.08 Q973.037 1455.77 973.037 1460.26 Q973.037 1462.39 972.227 1464.31 Q971.44 1466.2 969.333 1468.8 Q968.755 1469.47 965.653 1472.69 Q962.551 1475.88 956.903 1481.64 Z" fill="#000000" fill-rule="nonzero" fill-opacity="1" /><path clip-path="url(#clip680)" d="M993.037 1454.1 Q989.426 1454.1 987.597 1457.66 Q985.792 1461.2 985.792 1468.33 Q985.792 1475.44 987.597 1479.01 Q989.426 1482.55 993.037 1482.55 Q996.671 1482.55 998.477 1479.01 Q1000.31 1475.44 1000.31 1468.33 Q1000.31 1461.2 998.477 1457.66 Q996.671 1454.1 993.037 1454.1 M993.037 1450.39 Q998.847 1450.39 1001.9 1455 Q1004.98 1459.58 1004.98 1468.33 Q1004.98 1477.06 1001.9 1481.67 Q998.847 1486.25 993.037 1486.25 Q987.227 1486.25 984.148 1481.67 Q981.093 1477.06 981.093 1468.33 Q981.093 1459.58 984.148 1455 Q987.227 1450.39 993.037 1450.39 Z" fill="#000000" fill-rule="nonzero" fill-opacity="1" /><path clip-path="url(#clip680)" d="M1023.2 1454.1 Q1019.59 1454.1 1017.76 1457.66 Q1015.95 1461.2 1015.95 1468.33 Q1015.95 1475.44 1017.76 1479.01 Q1019.59 1482.55 1023.2 1482.55 Q1026.83 1482.55 1028.64 1479.01 Q1030.47 1475.44 1030.47 1468.33 Q1030.47 1461.2 1028.64 1457.66 Q1026.83 1454.1 1023.2 1454.1 M1023.2 1450.39 Q1029.01 1450.39 1032.06 1455 Q1035.14 1459.58 1035.14 1468.33 Q1035.14 1477.06 1032.06 1481.67 Q1029.01 1486.25 1023.2 1486.25 Q1017.39 1486.25 1014.31 1481.67 Q1011.25 1477.06 1011.25 1468.33 Q1011.25 1459.58 1014.31 1455 Q1017.39 1450.39 1023.2 1450.39 Z" fill="#000000" fill-rule="nonzero" fill-opacity="1" /><path clip-path="url(#clip680)" d="M1399.89 1466.95 Q1403.25 1467.66 1405.12 1469.93 Q1407.02 1472.2 1407.02 1475.53 Q1407.02 1480.65 1403.5 1483.45 Q1399.99 1486.25 1393.5 1486.25 Q1391.33 1486.25 1389.01 1485.81 Q1386.72 1485.39 1384.27 1484.54 L1384.27 1480.02 Q1386.21 1481.16 1388.53 1481.74 Q1390.84 1482.32 1393.37 1482.32 Q1397.76 1482.32 1400.06 1480.58 Q1402.37 1478.84 1402.37 1475.53 Q1402.37 1472.48 1400.22 1470.77 Q1398.09 1469.03 1394.27 1469.03 L1390.24 1469.03 L1390.24 1465.19 L1394.45 1465.19 Q1397.9 1465.19 1399.73 1463.82 Q1401.56 1462.43 1401.56 1459.84 Q1401.56 1457.18 1399.66 1455.77 Q1397.79 1454.33 1394.27 1454.33 Q1392.35 1454.33 1390.15 1454.75 Q1387.95 1455.16 1385.31 1456.04 L1385.31 1451.88 Q1387.97 1451.14 1390.29 1450.77 Q1392.62 1450.39 1394.69 1450.39 Q1400.01 1450.39 1403.11 1452.83 Q1406.21 1455.23 1406.21 1459.35 Q1406.21 1462.22 1404.57 1464.21 Q1402.93 1466.18 1399.89 1466.95 Z" fill="#000000" fill-rule="nonzero" fill-opacity="1" /><path clip-path="url(#clip680)" d="M1425.89 1454.1 Q1422.28 1454.1 1420.45 1457.66 Q1418.64 1461.2 1418.64 1468.33 Q1418.64 1475.44 1420.45 1479.01 Q1422.28 1482.55 1425.89 1482.55 Q1429.52 1482.55 1431.33 1479.01 Q1433.16 1475.44 1433.16 1468.33 Q1433.16 1461.2 1431.33 1457.66 Q1429.52 1454.1 1425.89 1454.1 M1425.89 1450.39 Q1431.7 1450.39 1434.75 1455 Q1437.83 1459.58 1437.83 1468.33 Q1437.83 1477.06 1434.75 1481.67 Q1431.7 1486.25 1425.89 1486.25 Q1420.08 1486.25 1417 1481.67 Q1413.94 1477.06 1413.94 1468.33 Q1413.94 1459.58 1417 1455 Q1420.08 1450.39 1425.89 1450.39 Z" fill="#000000" fill-rule="nonzero" fill-opacity="1" /><path clip-path="url(#clip680)" d="M1456.05 1454.1 Q1452.44 1454.1 1450.61 1457.66 Q1448.81 1461.2 1448.81 1468.33 Q1448.81 1475.44 1450.61 1479.01 Q1452.44 1482.55 1456.05 1482.55 Q1459.68 1482.55 1461.49 1479.01 Q1463.32 1475.44 1463.32 1468.33 Q1463.32 1461.2 1461.49 1457.66 Q1459.68 1454.1 1456.05 1454.1 M1456.05 1450.39 Q1461.86 1450.39 1464.92 1455 Q1467.99 1459.58 1467.99 1468.33 Q1467.99 1477.06 1464.92 1481.67 Q1461.86 1486.25 1456.05 1486.25 Q1450.24 1486.25 1447.16 1481.67 Q1444.11 1477.06 1444.11 1468.33 Q1444.11 1459.58 1447.16 1455 Q1450.24 1450.39 1456.05 1450.39 Z" fill="#000000" fill-rule="nonzero" fill-opacity="1" /><path clip-path="url(#clip680)" d="M1832.14 1455.09 L1820.34 1473.54 L1832.14 1473.54 L1832.14 1455.09 M1830.92 1451.02 L1836.8 1451.02 L1836.8 1473.54 L1841.73 1473.54 L1841.73 1477.43 L1836.8 1477.43 L1836.8 1485.58 L1832.14 1485.58 L1832.14 1477.43 L1816.54 1477.43 L1816.54 1472.92 L1830.92 1451.02 Z" fill="#000000" fill-rule="nonzero" fill-opacity="1" /><path clip-path="url(#clip680)" d="M1859.46 1454.1 Q1855.85 1454.1 1854.02 1457.66 Q1852.21 1461.2 1852.21 1468.33 Q1852.21 1475.44 1854.02 1479.01 Q1855.85 1482.55 1859.46 1482.55 Q1863.09 1482.55 1864.9 1479.01 Q1866.73 1475.44 1866.73 1468.33 Q1866.73 1461.2 1864.9 1457.66 Q1863.09 1454.1 1859.46 1454.1 M1859.46 1450.39 Q1865.27 1450.39 1868.32 1455 Q1871.4 1459.58 1871.4 1468.33 Q1871.4 1477.06 1868.32 1481.67 Q1865.27 1486.25 1859.46 1486.25 Q1853.65 1486.25 1850.57 1481.67 Q1847.51 1477.06 1847.51 1468.33 Q1847.51 1459.58 1850.57 1455 Q1853.65 1450.39 1859.46 1450.39 Z" fill="#000000" fill-rule="nonzero" fill-opacity="1" /><path clip-path="url(#clip680)" d="M1889.62 1454.1 Q1886.01 1454.1 1884.18 1457.66 Q1882.37 1461.2 1882.37 1468.33 Q1882.37 1475.44 1884.18 1479.01 Q1886.01 1482.55 1889.62 1482.55 Q1893.25 1482.55 1895.06 1479.01 Q1896.89 1475.44 1896.89 1468.33 Q1896.89 1461.2 1895.06 1457.66 Q1893.25 1454.1 1889.62 1454.1 M1889.62 1450.39 Q1895.43 1450.39 1898.49 1455 Q1901.56 1459.58 1901.56 1468.33 Q1901.56 1477.06 1898.49 1481.67 Q1895.43 1486.25 1889.62 1486.25 Q1883.81 1486.25 1880.73 1481.67 Q1877.68 1477.06 1877.68 1468.33 Q1877.68 1459.58 1880.73 1455 Q1883.81 1450.39 1889.62 1450.39 Z" fill="#000000" fill-rule="nonzero" fill-opacity="1" /><path clip-path="url(#clip680)" d="M2251.59 1451.02 L2269.95 1451.02 L2269.95 1454.96 L2255.87 1454.96 L2255.87 1463.43 Q2256.89 1463.08 2257.91 1462.92 Q2258.93 1462.73 2259.95 1462.73 Q2265.74 1462.73 2269.12 1465.9 Q2272.49 1469.08 2272.49 1474.49 Q2272.49 1480.07 2269.02 1483.17 Q2265.55 1486.25 2259.23 1486.25 Q2257.05 1486.25 2254.79 1485.88 Q2252.54 1485.51 2250.13 1484.77 L2250.13 1480.07 Q2252.22 1481.2 2254.44 1481.76 Q2256.66 1482.32 2259.14 1482.32 Q2263.14 1482.32 2265.48 1480.21 Q2267.82 1478.1 2267.82 1474.49 Q2267.82 1470.88 2265.48 1468.77 Q2263.14 1466.67 2259.14 1466.67 Q2257.26 1466.67 2255.39 1467.08 Q2253.54 1467.5 2251.59 1468.38 L2251.59 1451.02 Z" fill="#000000" fill-rule="nonzero" fill-opacity="1" /><path clip-path="url(#clip680)" d="M2291.71 1454.1 Q2288.1 1454.1 2286.27 1457.66 Q2284.46 1461.2 2284.46 1468.33 Q2284.46 1475.44 2286.27 1479.01 Q2288.1 1482.55 2291.71 1482.55 Q2295.34 1482.55 2297.15 1479.01 Q2298.98 1475.44 2298.98 1468.33 Q2298.98 1461.2 2297.15 1457.66 Q2295.34 1454.1 2291.71 1454.1 M2291.71 1450.39 Q2297.52 1450.39 2300.57 1455 Q2303.65 1459.58 2303.65 1468.33 Q2303.65 1477.06 2300.57 1481.67 Q2297.52 1486.25 2291.71 1486.25 Q2285.9 1486.25 2282.82 1481.67 Q2279.76 1477.06 2279.76 1468.33 Q2279.76 1459.58 2282.82 1455 Q2285.9 1450.39 2291.71 1450.39 Z" fill="#000000" fill-rule="nonzero" fill-opacity="1" /><path clip-path="url(#clip680)" d="M2321.87 1454.1 Q2318.26 1454.1 2316.43 1457.66 Q2314.62 1461.2 2314.62 1468.33 Q2314.62 1475.44 2316.43 1479.01 Q2318.26 1482.55 2321.87 1482.55 Q2325.5 1482.55 2327.31 1479.01 Q2329.14 1475.44 2329.14 1468.33 Q2329.14 1461.2 2327.31 1457.66 Q2325.5 1454.1 2321.87 1454.1 M2321.87 1450.39 Q2327.68 1450.39 2330.74 1455 Q2333.81 1459.58 2333.81 1468.33 Q2333.81 1477.06 2330.74 1481.67 Q2327.68 1486.25 2321.87 1486.25 Q2316.06 1486.25 2312.98 1481.67 Q2309.93 1477.06 2309.93 1468.33 Q2309.93 1459.58 2312.98 1455 Q2316.06 1450.39 2321.87 1450.39 Z" fill="#000000" fill-rule="nonzero" fill-opacity="1" /><path clip-path="url(#clip680)" d="M1117.65 1522.08 L1117.65 1528.35 Q1113.99 1526.6 1110.74 1525.74 Q1107.49 1524.88 1104.47 1524.88 Q1099.22 1524.88 1096.35 1526.92 Q1093.52 1528.96 1093.52 1532.71 Q1093.52 1535.87 1095.4 1537.49 Q1097.31 1539.08 1102.59 1540.07 L1106.48 1540.86 Q1113.67 1542.23 1117.07 1545.7 Q1120.51 1549.14 1120.51 1554.93 Q1120.51 1561.84 1115.86 1565.4 Q1111.25 1568.97 1102.31 1568.97 Q1098.93 1568.97 1095.11 1568.2 Q1091.33 1567.44 1087.25 1565.94 L1087.25 1559.32 Q1091.17 1561.52 1094.92 1562.63 Q1098.68 1563.75 1102.31 1563.75 Q1107.81 1563.75 1110.8 1561.58 Q1113.8 1559.42 1113.8 1555.41 Q1113.8 1551.91 1111.63 1549.93 Q1109.5 1547.96 1104.6 1546.97 L1100.68 1546.21 Q1093.49 1544.78 1090.27 1541.72 Q1087.06 1538.67 1087.06 1533.22 Q1087.06 1526.92 1091.48 1523.29 Q1095.94 1519.66 1103.74 1519.66 Q1107.08 1519.66 1110.55 1520.27 Q1114.02 1520.87 1117.65 1522.08 Z" fill="#000000" fill-rule="nonzero" fill-opacity="1" /><path clip-path="url(#clip680)" d="M1146.48 1550.12 Q1139.39 1550.12 1136.65 1551.75 Q1133.91 1553.37 1133.91 1557.29 Q1133.91 1560.4 1135.95 1562.25 Q1138.02 1564.07 1141.55 1564.07 Q1146.42 1564.07 1149.35 1560.63 Q1152.31 1557.16 1152.31 1551.43 L1152.31 1550.12 L1146.48 1550.12 M1158.17 1547.71 L1158.17 1568.04 L1152.31 1568.04 L1152.31 1562.63 Q1150.3 1565.88 1147.31 1567.44 Q1144.32 1568.97 1139.99 1568.97 Q1134.52 1568.97 1131.27 1565.91 Q1128.06 1562.82 1128.06 1557.67 Q1128.06 1551.65 1132.07 1548.6 Q1136.11 1545.54 1144.1 1545.54 L1152.31 1545.54 L1152.31 1544.97 Q1152.31 1540.93 1149.64 1538.73 Q1146.99 1536.5 1142.19 1536.5 Q1139.13 1536.5 1136.24 1537.23 Q1133.34 1537.97 1130.67 1539.43 L1130.67 1534.02 Q1133.88 1532.78 1136.9 1532.17 Q1139.93 1531.54 1142.79 1531.54 Q1150.53 1531.54 1154.35 1535.55 Q1158.17 1539.56 1158.17 1547.71 Z" fill="#000000" fill-rule="nonzero" fill-opacity="1" /><path clip-path="url(#clip680)" d="M1197.98 1539.24 Q1200.18 1535.29 1203.23 1533.41 Q1206.29 1531.54 1210.43 1531.54 Q1216 1531.54 1219.02 1535.45 Q1222.04 1539.33 1222.04 1546.53 L1222.04 1568.04 L1216.16 1568.04 L1216.16 1546.72 Q1216.16 1541.59 1214.34 1539.11 Q1212.53 1536.63 1208.8 1536.63 Q1204.25 1536.63 1201.61 1539.65 Q1198.97 1542.68 1198.97 1547.9 L1198.97 1568.04 L1193.08 1568.04 L1193.08 1546.72 Q1193.08 1541.56 1191.27 1539.11 Q1189.45 1536.63 1185.66 1536.63 Q1181.18 1536.63 1178.54 1539.68 Q1175.89 1542.71 1175.89 1547.9 L1175.89 1568.04 L1170.01 1568.04 L1170.01 1532.4 L1175.89 1532.4 L1175.89 1537.93 Q1177.9 1534.66 1180.7 1533.1 Q1183.5 1531.54 1187.35 1531.54 Q1191.23 1531.54 1193.94 1533.51 Q1196.68 1535.48 1197.98 1539.24 Z" fill="#000000" fill-rule="nonzero" fill-opacity="1" /><path clip-path="url(#clip680)" d="M1239.39 1562.7 L1239.39 1581.6 L1233.5 1581.6 L1233.5 1532.4 L1239.39 1532.4 L1239.39 1537.81 Q1241.24 1534.62 1244.04 1533.1 Q1246.87 1531.54 1250.79 1531.54 Q1257.28 1531.54 1261.32 1536.69 Q1265.4 1541.85 1265.4 1550.25 Q1265.4 1558.65 1261.32 1563.81 Q1257.28 1568.97 1250.79 1568.97 Q1246.87 1568.97 1244.04 1567.44 Q1241.24 1565.88 1239.39 1562.7 M1259.32 1550.25 Q1259.32 1543.79 1256.64 1540.13 Q1254 1536.44 1249.35 1536.44 Q1244.71 1536.44 1242.03 1540.13 Q1239.39 1543.79 1239.39 1550.25 Q1239.39 1556.71 1242.03 1560.4 Q1244.71 1564.07 1249.35 1564.07 Q1254 1564.07 1256.64 1560.4 Q1259.32 1556.71 1259.32 1550.25 Z" fill="#000000" fill-rule="nonzero" fill-opacity="1" /><path clip-path="url(#clip680)" d="M1275.1 1518.52 L1280.96 1518.52 L1280.96 1568.04 L1275.1 1568.04 L1275.1 1518.52 Z" fill="#000000" fill-rule="nonzero" fill-opacity="1" /><path clip-path="url(#clip680)" d="M1323.71 1548.76 L1323.71 1551.62 L1296.78 1551.62 Q1297.16 1557.67 1300.41 1560.85 Q1303.69 1564 1309.51 1564 Q1312.88 1564 1316.03 1563.17 Q1319.22 1562.35 1322.34 1560.69 L1322.34 1566.23 Q1319.19 1567.57 1315.88 1568.27 Q1312.57 1568.97 1309.16 1568.97 Q1300.63 1568.97 1295.63 1564 Q1290.67 1559.04 1290.67 1550.57 Q1290.67 1541.82 1295.38 1536.69 Q1300.12 1531.54 1308.14 1531.54 Q1315.33 1531.54 1319.5 1536.18 Q1323.71 1540.8 1323.71 1548.76 M1317.85 1547.04 Q1317.79 1542.23 1315.14 1539.37 Q1312.53 1536.5 1308.2 1536.5 Q1303.3 1536.5 1300.34 1539.27 Q1297.41 1542.04 1296.97 1547.07 L1317.85 1547.04 Z" fill="#000000" fill-rule="nonzero" fill-opacity="1" /><path clip-path="url(#clip680)" d="M1376.76 1533.45 L1376.76 1538.98 Q1374.28 1537.71 1371.61 1537.07 Q1368.93 1536.44 1366.07 1536.44 Q1361.71 1536.44 1359.51 1537.77 Q1357.35 1539.11 1357.35 1541.79 Q1357.35 1543.82 1358.91 1545 Q1360.47 1546.15 1365.18 1547.2 L1367.18 1547.64 Q1373.42 1548.98 1376.03 1551.43 Q1378.67 1553.85 1378.67 1558.21 Q1378.67 1563.17 1374.73 1566.07 Q1370.81 1568.97 1363.94 1568.97 Q1361.07 1568.97 1357.95 1568.39 Q1354.87 1567.85 1351.43 1566.74 L1351.43 1560.69 Q1354.67 1562.38 1357.83 1563.24 Q1360.98 1564.07 1364.06 1564.07 Q1368.2 1564.07 1370.43 1562.66 Q1372.66 1561.23 1372.66 1558.65 Q1372.66 1556.27 1371.03 1554.99 Q1369.44 1553.72 1364 1552.54 L1361.96 1552.07 Q1356.52 1550.92 1354.1 1548.56 Q1351.68 1546.18 1351.68 1542.04 Q1351.68 1537.01 1355.25 1534.27 Q1358.81 1531.54 1365.37 1531.54 Q1368.62 1531.54 1371.48 1532.01 Q1374.34 1532.49 1376.76 1533.45 Z" fill="#000000" fill-rule="nonzero" fill-opacity="1" /><path clip-path="url(#clip680)" d="M1388 1532.4 L1393.86 1532.4 L1393.86 1568.04 L1388 1568.04 L1388 1532.4 M1388 1518.52 L1393.86 1518.52 L1393.86 1525.93 L1388 1525.93 L1388 1518.52 Z" fill="#000000" fill-rule="nonzero" fill-opacity="1" /><path clip-path="url(#clip680)" d="M1403.56 1532.4 L1431.38 1532.4 L1431.38 1537.74 L1409.36 1563.37 L1431.38 1563.37 L1431.38 1568.04 L1402.77 1568.04 L1402.77 1562.7 L1424.79 1537.07 L1403.56 1537.07 L1403.56 1532.4 Z" fill="#000000" fill-rule="nonzero" fill-opacity="1" /><path clip-path="url(#clip680)" d="M1470.82 1548.76 L1470.82 1551.62 L1443.89 1551.62 Q1444.27 1557.67 1447.52 1560.85 Q1450.8 1564 1456.62 1564 Q1460 1564 1463.15 1563.17 Q1466.33 1562.35 1469.45 1560.69 L1469.45 1566.23 Q1466.3 1567.57 1462.99 1568.27 Q1459.68 1568.97 1456.27 1568.97 Q1447.74 1568.97 1442.74 1564 Q1437.78 1559.04 1437.78 1550.57 Q1437.78 1541.82 1442.49 1536.69 Q1447.23 1531.54 1455.25 1531.54 Q1462.45 1531.54 1466.62 1536.18 Q1470.82 1540.8 1470.82 1548.76 M1464.96 1547.04 Q1464.9 1542.23 1462.25 1539.37 Q1459.64 1536.5 1455.32 1536.5 Q1450.41 1536.5 1447.45 1539.27 Q1444.53 1542.04 1444.08 1547.07 L1464.96 1547.04 Z" fill="#000000" fill-rule="nonzero" fill-opacity="1" /><polyline clip-path="url(#clip680)" style="stroke:#000000; stroke-linecap:round; stroke-linejoin:round; stroke-width:4; stroke-opacity:1; fill:none" points="205.121,1423.18 205.121,47.2441 "/>
<polyline clip-path="url(#clip680)" style="stroke:#000000; stroke-linecap:round; stroke-linejoin:round; stroke-width:4; stroke-opacity:1; fill:none" points="205.121,1423.18 224.019,1423.18 "/>
<polyline clip-path="url(#clip680)" style="stroke:#000000; stroke-linecap:round; stroke-linejoin:round; stroke-width:4; stroke-opacity:1; fill:none" points="205.121,1226.62 224.019,1226.62 "/>
<polyline clip-path="url(#clip680)" style="stroke:#000000; stroke-linecap:round; stroke-linejoin:round; stroke-width:4; stroke-opacity:1; fill:none" points="205.121,1030.06 224.019,1030.06 "/>
<polyline clip-path="url(#clip680)" style="stroke:#000000; stroke-linecap:round; stroke-linejoin:round; stroke-width:4; stroke-opacity:1; fill:none" points="205.121,833.493 224.019,833.493 "/>
<polyline clip-path="url(#clip680)" style="stroke:#000000; stroke-linecap:round; stroke-linejoin:round; stroke-width:4; stroke-opacity:1; fill:none" points="205.121,636.931 224.019,636.931 "/>
<polyline clip-path="url(#clip680)" style="stroke:#000000; stroke-linecap:round; stroke-linejoin:round; stroke-width:4; stroke-opacity:1; fill:none" points="205.121,440.369 224.019,440.369 "/>
<polyline clip-path="url(#clip680)" style="stroke:#000000; stroke-linecap:round; stroke-linejoin:round; stroke-width:4; stroke-opacity:1; fill:none" points="205.121,243.806 224.019,243.806 "/>
<polyline clip-path="url(#clip680)" style="stroke:#000000; stroke-linecap:round; stroke-linejoin:round; stroke-width:4; stroke-opacity:1; fill:none" points="205.121,47.2441 224.019,47.2441 "/>
<path clip-path="url(#clip680)" d="M157.177 1408.98 Q153.566 1408.98 151.737 1412.54 Q149.931 1416.08 149.931 1423.21 Q149.931 1430.32 151.737 1433.89 Q153.566 1437.43 157.177 1437.43 Q160.811 1437.43 162.616 1433.89 Q164.445 1430.32 164.445 1423.21 Q164.445 1416.08 162.616 1412.54 Q160.811 1408.98 157.177 1408.98 M157.177 1405.27 Q162.987 1405.27 166.042 1409.88 Q169.121 1414.46 169.121 1423.21 Q169.121 1431.94 166.042 1436.55 Q162.987 1441.13 157.177 1441.13 Q151.366 1441.13 148.288 1436.55 Q145.232 1431.94 145.232 1423.21 Q145.232 1414.46 148.288 1409.88 Q151.366 1405.27 157.177 1405.27 Z" fill="#000000" fill-rule="nonzero" fill-opacity="1" /><path clip-path="url(#clip680)" d="M117.825 1239.96 L125.464 1239.96 L125.464 1213.6 L117.154 1215.26 L117.154 1211 L125.418 1209.34 L130.093 1209.34 L130.093 1239.96 L137.732 1239.96 L137.732 1243.9 L117.825 1243.9 L117.825 1239.96 Z" fill="#000000" fill-rule="nonzero" fill-opacity="1" /><path clip-path="url(#clip680)" d="M157.177 1212.42 Q153.566 1212.42 151.737 1215.98 Q149.931 1219.52 149.931 1226.65 Q149.931 1233.76 151.737 1237.32 Q153.566 1240.87 157.177 1240.87 Q160.811 1240.87 162.616 1237.32 Q164.445 1233.76 164.445 1226.65 Q164.445 1219.52 162.616 1215.98 Q160.811 1212.42 157.177 1212.42 M157.177 1208.71 Q162.987 1208.71 166.042 1213.32 Q169.121 1217.9 169.121 1226.65 Q169.121 1235.38 166.042 1239.99 Q162.987 1244.57 157.177 1244.57 Q151.366 1244.57 148.288 1239.99 Q145.232 1235.38 145.232 1226.65 Q145.232 1217.9 148.288 1213.32 Q151.366 1208.71 157.177 1208.71 Z" fill="#000000" fill-rule="nonzero" fill-opacity="1" /><path clip-path="url(#clip680)" d="M121.043 1043.4 L137.362 1043.4 L137.362 1047.34 L115.418 1047.34 L115.418 1043.4 Q118.08 1040.65 122.663 1036.02 Q127.269 1031.36 128.45 1030.02 Q130.695 1027.5 131.575 1025.76 Q132.478 1024 132.478 1022.31 Q132.478 1019.56 130.533 1017.82 Q128.612 1016.09 125.51 1016.09 Q123.311 1016.09 120.857 1016.85 Q118.427 1017.61 115.649 1019.16 L115.649 1014.44 Q118.473 1013.31 120.927 1012.73 Q123.38 1012.15 125.418 1012.15 Q130.788 1012.15 133.982 1014.84 Q137.177 1017.52 137.177 1022.01 Q137.177 1024.14 136.367 1026.06 Q135.579 1027.96 133.473 1030.55 Q132.894 1031.22 129.792 1034.44 Q126.691 1037.64 121.043 1043.4 Z" fill="#000000" fill-rule="nonzero" fill-opacity="1" /><path clip-path="url(#clip680)" d="M157.177 1015.85 Q153.566 1015.85 151.737 1019.42 Q149.931 1022.96 149.931 1030.09 Q149.931 1037.2 151.737 1040.76 Q153.566 1044.3 157.177 1044.3 Q160.811 1044.3 162.616 1040.76 Q164.445 1037.2 164.445 1030.09 Q164.445 1022.96 162.616 1019.42 Q160.811 1015.85 157.177 1015.85 M157.177 1012.15 Q162.987 1012.15 166.042 1016.76 Q169.121 1021.34 169.121 1030.09 Q169.121 1038.82 166.042 1043.42 Q162.987 1048.01 157.177 1048.01 Q151.366 1048.01 148.288 1043.42 Q145.232 1038.82 145.232 1030.09 Q145.232 1021.34 148.288 1016.76 Q151.366 1012.15 157.177 1012.15 Z" fill="#000000" fill-rule="nonzero" fill-opacity="1" /><path clip-path="url(#clip680)" d="M131.181 832.139 Q134.538 832.857 136.413 835.125 Q138.311 837.394 138.311 840.727 Q138.311 845.843 134.792 848.643 Q131.274 851.444 124.793 851.444 Q122.617 851.444 120.302 851.005 Q118.01 850.588 115.556 849.731 L115.556 845.218 Q117.501 846.352 119.816 846.931 Q122.13 847.509 124.654 847.509 Q129.052 847.509 131.343 845.773 Q133.658 844.037 133.658 840.727 Q133.658 837.671 131.505 835.958 Q129.376 834.222 125.556 834.222 L121.529 834.222 L121.529 830.38 L125.742 830.38 Q129.191 830.38 131.019 829.014 Q132.848 827.625 132.848 825.032 Q132.848 822.37 130.95 820.958 Q129.075 819.523 125.556 819.523 Q123.635 819.523 121.436 819.94 Q119.237 820.357 116.598 821.236 L116.598 817.07 Q119.26 816.329 121.575 815.958 Q123.913 815.588 125.973 815.588 Q131.297 815.588 134.399 818.019 Q137.501 820.426 137.501 824.546 Q137.501 827.417 135.857 829.407 Q134.214 831.375 131.181 832.139 Z" fill="#000000" fill-rule="nonzero" fill-opacity="1" /><path clip-path="url(#clip680)" d="M157.177 819.292 Q153.566 819.292 151.737 822.857 Q149.931 826.398 149.931 833.528 Q149.931 840.634 151.737 844.199 Q153.566 847.741 157.177 847.741 Q160.811 847.741 162.616 844.199 Q164.445 840.634 164.445 833.528 Q164.445 826.398 162.616 822.857 Q160.811 819.292 157.177 819.292 M157.177 815.588 Q162.987 815.588 166.042 820.195 Q169.121 824.778 169.121 833.528 Q169.121 842.255 166.042 846.861 Q162.987 851.444 157.177 851.444 Q151.366 851.444 148.288 846.861 Q145.232 842.255 145.232 833.528 Q145.232 824.778 148.288 820.195 Q151.366 815.588 157.177 815.588 Z" fill="#000000" fill-rule="nonzero" fill-opacity="1" /><path clip-path="url(#clip680)" d="M129.862 623.725 L118.056 642.174 L129.862 642.174 L129.862 623.725 M128.635 619.651 L134.515 619.651 L134.515 642.174 L139.445 642.174 L139.445 646.063 L134.515 646.063 L134.515 654.211 L129.862 654.211 L129.862 646.063 L114.26 646.063 L114.26 641.549 L128.635 619.651 Z" fill="#000000" fill-rule="nonzero" fill-opacity="1" /><path clip-path="url(#clip680)" d="M157.177 622.73 Q153.566 622.73 151.737 626.294 Q149.931 629.836 149.931 636.966 Q149.931 644.072 151.737 647.637 Q153.566 651.178 157.177 651.178 Q160.811 651.178 162.616 647.637 Q164.445 644.072 164.445 636.966 Q164.445 629.836 162.616 626.294 Q160.811 622.73 157.177 622.73 M157.177 619.026 Q162.987 619.026 166.042 623.632 Q169.121 628.216 169.121 636.966 Q169.121 645.692 166.042 650.299 Q162.987 654.882 157.177 654.882 Q151.366 654.882 148.288 650.299 Q145.232 645.692 145.232 636.966 Q145.232 628.216 148.288 623.632 Q151.366 619.026 157.177 619.026 Z" fill="#000000" fill-rule="nonzero" fill-opacity="1" /><path clip-path="url(#clip680)" d="M117.061 423.089 L135.417 423.089 L135.417 427.024 L121.343 427.024 L121.343 435.496 Q122.362 435.149 123.38 434.987 Q124.399 434.801 125.418 434.801 Q131.205 434.801 134.584 437.973 Q137.964 441.144 137.964 446.561 Q137.964 452.139 134.492 455.241 Q131.019 458.32 124.7 458.32 Q122.524 458.32 120.255 457.95 Q118.01 457.579 115.603 456.838 L115.603 452.139 Q117.686 453.274 119.908 453.829 Q122.13 454.385 124.607 454.385 Q128.612 454.385 130.95 452.278 Q133.288 450.172 133.288 446.561 Q133.288 442.95 130.95 440.843 Q128.612 438.737 124.607 438.737 Q122.732 438.737 120.857 439.153 Q119.006 439.57 117.061 440.45 L117.061 423.089 Z" fill="#000000" fill-rule="nonzero" fill-opacity="1" /><path clip-path="url(#clip680)" d="M157.177 426.167 Q153.566 426.167 151.737 429.732 Q149.931 433.274 149.931 440.403 Q149.931 447.51 151.737 451.075 Q153.566 454.616 157.177 454.616 Q160.811 454.616 162.616 451.075 Q164.445 447.51 164.445 440.403 Q164.445 433.274 162.616 429.732 Q160.811 426.167 157.177 426.167 M157.177 422.464 Q162.987 422.464 166.042 427.07 Q169.121 431.653 169.121 440.403 Q169.121 449.13 166.042 453.737 Q162.987 458.32 157.177 458.32 Q151.366 458.32 148.288 453.737 Q145.232 449.13 145.232 440.403 Q145.232 431.653 148.288 427.07 Q151.366 422.464 157.177 422.464 Z" fill="#000000" fill-rule="nonzero" fill-opacity="1" /><path clip-path="url(#clip680)" d="M127.593 241.943 Q124.445 241.943 122.593 244.096 Q120.765 246.248 120.765 249.998 Q120.765 253.725 122.593 255.901 Q124.445 258.054 127.593 258.054 Q130.742 258.054 132.57 255.901 Q134.422 253.725 134.422 249.998 Q134.422 246.248 132.57 244.096 Q130.742 241.943 127.593 241.943 M136.876 227.29 L136.876 231.549 Q135.117 230.716 133.311 230.276 Q131.529 229.837 129.769 229.837 Q125.14 229.837 122.686 232.961 Q120.255 236.086 119.908 242.406 Q121.274 240.392 123.334 239.327 Q125.394 238.239 127.871 238.239 Q133.08 238.239 136.089 241.411 Q139.121 244.559 139.121 249.998 Q139.121 255.322 135.973 258.54 Q132.825 261.758 127.593 261.758 Q121.598 261.758 118.427 257.174 Q115.256 252.568 115.256 243.841 Q115.256 235.647 119.144 230.786 Q123.033 225.901 129.584 225.901 Q131.343 225.901 133.126 226.249 Q134.931 226.596 136.876 227.29 Z" fill="#000000" fill-rule="nonzero" fill-opacity="1" /><path clip-path="url(#clip680)" d="M157.177 229.605 Q153.566 229.605 151.737 233.17 Q149.931 236.711 149.931 243.841 Q149.931 250.948 151.737 254.512 Q153.566 258.054 157.177 258.054 Q160.811 258.054 162.616 254.512 Q164.445 250.948 164.445 243.841 Q164.445 236.711 162.616 233.17 Q160.811 229.605 157.177 229.605 M157.177 225.901 Q162.987 225.901 166.042 230.508 Q169.121 235.091 169.121 243.841 Q169.121 252.568 166.042 257.174 Q162.987 261.758 157.177 261.758 Q151.366 261.758 148.288 257.174 Q145.232 252.568 145.232 243.841 Q145.232 235.091 148.288 230.508 Q151.366 225.901 157.177 225.901 Z" fill="#000000" fill-rule="nonzero" fill-opacity="1" /><path clip-path="url(#clip680)" d="M115.834 29.9641 L138.056 29.9641 L138.056 31.9548 L125.51 64.5241 L120.626 64.5241 L132.431 33.8993 L115.834 33.8993 L115.834 29.9641 Z" fill="#000000" fill-rule="nonzero" fill-opacity="1" /><path clip-path="url(#clip680)" d="M157.177 33.0428 Q153.566 33.0428 151.737 36.6076 Q149.931 40.1492 149.931 47.2788 Q149.931 54.3853 151.737 57.9501 Q153.566 61.4917 157.177 61.4917 Q160.811 61.4917 162.616 57.9501 Q164.445 54.3853 164.445 47.2788 Q164.445 40.1492 162.616 36.6076 Q160.811 33.0428 157.177 33.0428 M157.177 29.3391 Q162.987 29.3391 166.042 33.9456 Q169.121 38.5289 169.121 47.2788 Q169.121 56.0056 166.042 60.6121 Q162.987 65.1954 157.177 65.1954 Q151.366 65.1954 148.288 60.6121 Q145.232 56.0056 145.232 47.2788 Q145.232 38.5289 148.288 33.9456 Q151.366 29.3391 157.177 29.3391 Z" fill="#000000" fill-rule="nonzero" fill-opacity="1" /><path clip-path="url(#clip680)" d="M16.4842 987.167 L16.4842 959.858 L21.895 959.858 L21.895 980.737 L35.8996 980.737 L35.8996 961.895 L41.3104 961.895 L41.3104 980.737 L64.0042 980.737 L64.0042 987.167 L16.4842 987.167 Z" fill="#000000" fill-rule="nonzero" fill-opacity="1" /><path clip-path="url(#clip680)" d="M44.7161 923 L47.5806 923 L47.5806 949.927 Q53.6281 949.545 56.8109 946.299 Q59.9619 943.02 59.9619 937.196 Q59.9619 933.822 59.1344 930.671 Q58.3069 927.488 56.6518 924.369 L62.1899 924.369 Q63.5267 927.52 64.227 930.83 Q64.9272 934.14 64.9272 937.546 Q64.9272 946.076 59.9619 951.073 Q54.9967 956.038 46.5303 956.038 Q37.7774 956.038 32.6531 951.328 Q27.4968 946.585 27.4968 938.564 Q27.4968 931.371 32.1438 927.202 Q36.7589 923 44.7161 923 M42.9973 928.857 Q38.1912 928.92 35.3266 931.562 Q32.4621 934.172 32.4621 938.501 Q32.4621 943.402 35.2312 946.362 Q38.0002 949.291 43.0292 949.736 L42.9973 928.857 Z" fill="#000000" fill-rule="nonzero" fill-opacity="1" /><path clip-path="url(#clip680)" d="M46.0847 897.187 Q46.0847 904.285 47.7079 907.022 Q49.3312 909.76 53.2461 909.76 Q56.3653 909.76 58.2114 907.723 Q60.0256 905.654 60.0256 902.121 Q60.0256 897.251 56.5881 894.323 Q53.1188 891.363 47.3897 891.363 L46.0847 891.363 L46.0847 897.187 M43.6657 885.506 L64.0042 885.506 L64.0042 891.363 L58.5933 891.363 Q61.8398 893.368 63.3994 896.36 Q64.9272 899.352 64.9272 903.68 Q64.9272 909.155 61.8716 912.401 Q58.7843 915.616 53.6281 915.616 Q47.6125 915.616 44.5569 911.606 Q41.5014 907.563 41.5014 899.575 L41.5014 891.363 L40.9285 891.363 Q36.8862 891.363 34.6901 894.036 Q32.4621 896.678 32.4621 901.484 Q32.4621 904.54 33.1941 907.436 Q33.9262 910.333 35.3903 913.006 L29.9795 913.006 Q28.7381 909.791 28.1334 906.768 Q27.4968 903.744 27.4968 900.879 Q27.4968 893.145 31.5072 889.326 Q35.5176 885.506 43.6657 885.506 Z" fill="#000000" fill-rule="nonzero" fill-opacity="1" /><path clip-path="url(#clip680)" d="M18.2347 867.65 L28.3562 867.65 L28.3562 855.587 L32.9077 855.587 L32.9077 867.65 L52.2594 867.65 Q56.6199 867.65 57.8613 866.473 Q59.1026 865.263 59.1026 861.603 L59.1026 855.587 L64.0042 855.587 L64.0042 861.603 Q64.0042 868.383 61.4897 870.961 Q58.9434 873.539 52.2594 873.539 L32.9077 873.539 L32.9077 877.836 L28.3562 877.836 L28.3562 873.539 L18.2347 873.539 L18.2347 867.65 Z" fill="#000000" fill-rule="nonzero" fill-opacity="1" /><path clip-path="url(#clip680)" d="M49.9359 848.49 L28.3562 848.49 L28.3562 842.633 L49.7131 842.633 Q54.7739 842.633 57.3202 840.66 Q59.8346 838.687 59.8346 834.74 Q59.8346 829.997 56.8109 827.26 Q53.7872 824.491 48.5673 824.491 L28.3562 824.491 L28.3562 818.635 L64.0042 818.635 L64.0042 824.491 L58.5296 824.491 Q61.7762 826.624 63.3676 829.456 Q64.9272 832.257 64.9272 835.981 Q64.9272 842.124 61.1078 845.307 Q57.2883 848.49 49.9359 848.49 M27.4968 833.753 L27.4968 833.753 Z" fill="#000000" fill-rule="nonzero" fill-opacity="1" /><path clip-path="url(#clip680)" d="M33.8307 785.915 Q33.2578 786.902 33.0032 788.079 Q32.7167 789.225 32.7167 790.625 Q32.7167 795.591 35.9632 798.264 Q39.1779 800.906 45.2253 800.906 L64.0042 800.906 L64.0042 806.794 L28.3562 806.794 L28.3562 800.906 L33.8944 800.906 Q30.6479 799.06 29.0883 796.1 Q27.4968 793.14 27.4968 788.907 Q27.4968 788.302 27.5923 787.57 Q27.656 786.838 27.8151 785.947 L33.8307 785.915 Z" fill="#000000" fill-rule="nonzero" fill-opacity="1" /><path clip-path="url(#clip680)" d="M44.7161 750.712 L47.5806 750.712 L47.5806 777.639 Q53.6281 777.257 56.8109 774.011 Q59.9619 770.733 59.9619 764.908 Q59.9619 761.534 59.1344 758.383 Q58.3069 755.2 56.6518 752.081 L62.1899 752.081 Q63.5267 755.232 64.227 758.542 Q64.9272 761.852 64.9272 765.258 Q64.9272 773.788 59.9619 778.785 Q54.9967 783.75 46.5303 783.75 Q37.7774 783.75 32.6531 779.04 Q27.4968 774.297 27.4968 766.277 Q27.4968 759.083 32.1438 754.914 Q36.7589 750.712 44.7161 750.712 M42.9973 756.569 Q38.1912 756.633 35.3266 759.274 Q32.4621 761.884 32.4621 766.213 Q32.4621 771.115 35.2312 774.075 Q38.0002 777.003 43.0292 777.448 L42.9973 756.569 Z" fill="#000000" fill-rule="nonzero" fill-opacity="1" /><path clip-path="url(#clip680)" d="M29.4065 697.654 L34.9447 697.654 Q33.6716 700.137 33.035 702.811 Q32.3984 705.484 32.3984 708.349 Q32.3984 712.709 33.7352 714.905 Q35.072 717.07 37.7456 717.07 Q39.7826 717.07 40.9603 715.51 Q42.1061 713.951 43.1565 709.24 L43.6021 707.235 Q44.9389 700.996 47.3897 698.386 Q49.8086 695.745 54.1691 695.745 Q59.1344 695.745 62.0308 699.691 Q64.9272 703.606 64.9272 710.481 Q64.9272 713.346 64.3543 716.465 Q63.8132 719.552 62.6992 722.99 L56.6518 722.99 Q58.3387 719.743 59.198 716.592 Q60.0256 713.441 60.0256 710.354 Q60.0256 706.216 58.6251 703.988 Q57.1929 701.76 54.6147 701.76 Q52.2276 701.76 50.9545 703.383 Q49.6813 704.975 48.5037 710.418 L48.0262 712.455 Q46.8804 717.897 44.5251 720.316 Q42.138 722.735 38.0002 722.735 Q32.9713 722.735 30.2341 719.17 Q27.4968 715.606 27.4968 709.049 Q27.4968 705.802 27.9743 702.938 Q28.4517 700.073 29.4065 697.654 Z" fill="#000000" fill-rule="nonzero" fill-opacity="1" /><path clip-path="url(#clip680)" d="M44.7161 655.927 L47.5806 655.927 L47.5806 682.854 Q53.6281 682.472 56.8109 679.226 Q59.9619 675.947 59.9619 670.123 Q59.9619 666.749 59.1344 663.598 Q58.3069 660.415 56.6518 657.296 L62.1899 657.296 Q63.5267 660.447 64.227 663.757 Q64.9272 667.067 64.9272 670.473 Q64.9272 679.003 59.9619 684 Q54.9967 688.965 46.5303 688.965 Q37.7774 688.965 32.6531 684.254 Q27.4968 679.512 27.4968 671.491 Q27.4968 664.298 32.1438 660.128 Q36.7589 655.927 44.7161 655.927 M42.9973 661.784 Q38.1912 661.847 35.3266 664.489 Q32.4621 667.099 32.4621 671.428 Q32.4621 676.329 35.2312 679.289 Q38.0002 682.217 43.0292 682.663 L42.9973 661.784 Z" fill="#000000" fill-rule="nonzero" fill-opacity="1" /><path clip-path="url(#clip680)" d="M18.2347 640.522 L28.3562 640.522 L28.3562 628.459 L32.9077 628.459 L32.9077 640.522 L52.2594 640.522 Q56.6199 640.522 57.8613 639.344 Q59.1026 638.135 59.1026 634.475 L59.1026 628.459 L64.0042 628.459 L64.0042 634.475 Q64.0042 641.254 61.4897 643.832 Q58.9434 646.41 52.2594 646.41 L32.9077 646.41 L32.9077 650.707 L28.3562 650.707 L28.3562 646.41 L18.2347 646.41 L18.2347 640.522 Z" fill="#000000" fill-rule="nonzero" fill-opacity="1" /><path clip-path="url(#clip680)" d="M29.4065 577.311 L34.9447 577.311 Q33.6716 579.793 33.035 582.467 Q32.3984 585.14 32.3984 588.005 Q32.3984 592.366 33.7352 594.562 Q35.072 596.726 37.7456 596.726 Q39.7826 596.726 40.9603 595.166 Q42.1061 593.607 43.1565 588.896 L43.6021 586.891 Q44.9389 580.653 47.3897 578.043 Q49.8086 575.401 54.1691 575.401 Q59.1344 575.401 62.0308 579.348 Q64.9272 583.263 64.9272 590.138 Q64.9272 593.002 64.3543 596.121 Q63.8132 599.209 62.6992 602.646 L56.6518 602.646 Q58.3387 599.4 59.198 596.249 Q60.0256 593.098 60.0256 590.01 Q60.0256 585.872 58.6251 583.644 Q57.1929 581.416 54.6147 581.416 Q52.2276 581.416 50.9545 583.04 Q49.6813 584.631 48.5037 590.074 L48.0262 592.111 Q46.8804 597.554 44.5251 599.973 Q42.138 602.391 38.0002 602.391 Q32.9713 602.391 30.2341 598.827 Q27.4968 595.262 27.4968 588.705 Q27.4968 585.459 27.9743 582.594 Q28.4517 579.73 29.4065 577.311 Z" fill="#000000" fill-rule="nonzero" fill-opacity="1" /><path clip-path="url(#clip680)" d="M28.3562 566.075 L28.3562 560.219 L64.0042 560.219 L64.0042 566.075 L28.3562 566.075 M14.479 566.075 L14.479 560.219 L21.895 560.219 L21.895 566.075 L14.479 566.075 Z" fill="#000000" fill-rule="nonzero" fill-opacity="1" /><path clip-path="url(#clip680)" d="M28.3562 550.511 L28.3562 522.693 L33.7034 522.693 L59.3254 544.718 L59.3254 522.693 L64.0042 522.693 L64.0042 551.307 L58.657 551.307 L33.035 529.281 L33.035 550.511 L28.3562 550.511 Z" fill="#000000" fill-rule="nonzero" fill-opacity="1" /><path clip-path="url(#clip680)" d="M44.7161 483.257 L47.5806 483.257 L47.5806 510.184 Q53.6281 509.802 56.8109 506.556 Q59.9619 503.277 59.9619 497.453 Q59.9619 494.079 59.1344 490.928 Q58.3069 487.745 56.6518 484.626 L62.1899 484.626 Q63.5267 487.777 64.227 491.087 Q64.9272 494.397 64.9272 497.803 Q64.9272 506.333 59.9619 511.33 Q54.9967 516.295 46.5303 516.295 Q37.7774 516.295 32.6531 511.585 Q27.4968 506.842 27.4968 498.821 Q27.4968 491.628 32.1438 487.459 Q36.7589 483.257 44.7161 483.257 M42.9973 489.114 Q38.1912 489.177 35.3266 491.819 Q32.4621 494.429 32.4621 498.758 Q32.4621 503.659 35.2312 506.619 Q38.0002 509.548 43.0292 509.993 L42.9973 489.114 Z" fill="#000000" fill-rule="nonzero" fill-opacity="1" /><circle clip-path="url(#clip682)" cx="343.829" cy="1344.55" r="36" fill="#1f77b4" fill-rule="evenodd" fill-opacity="1" stroke="none"/>
<circle clip-path="url(#clip682)" cx="486.693" cy="1364.21" r="36" fill="#1f77b4" fill-rule="evenodd" fill-opacity="1" stroke="none"/>
<circle clip-path="url(#clip682)" cx="343.829" cy="1305.24" r="36" fill="#1f77b4" fill-rule="evenodd" fill-opacity="1" stroke="none"/>
<circle clip-path="url(#clip682)" cx="560.289" cy="1305.24" r="36" fill="#1f77b4" fill-rule="evenodd" fill-opacity="1" stroke="none"/>
<circle clip-path="url(#clip682)" cx="547.302" cy="1226.62" r="36" fill="#1f77b4" fill-rule="evenodd" fill-opacity="1" stroke="none"/>
<circle clip-path="url(#clip682)" cx="525.656" cy="1226.62" r="36" fill="#1f77b4" fill-rule="evenodd" fill-opacity="1" stroke="none"/>
<circle clip-path="url(#clip682)" cx="309.195" cy="1206.96" r="36" fill="#1f77b4" fill-rule="evenodd" fill-opacity="1" stroke="none"/>
<circle clip-path="url(#clip682)" cx="352.487" cy="1246.27" r="36" fill="#1f77b4" fill-rule="evenodd" fill-opacity="1" stroke="none"/>
<circle clip-path="url(#clip682)" cx="374.133" cy="1108.68" r="36" fill="#1f77b4" fill-rule="evenodd" fill-opacity="1" stroke="none"/>
<circle clip-path="url(#clip682)" cx="504.01" cy="1364.21" r="36" fill="#1f77b4" fill-rule="evenodd" fill-opacity="1" stroke="none"/>
<circle clip-path="url(#clip682)" cx="265.903" cy="1324.9" r="36" fill="#1f77b4" fill-rule="evenodd" fill-opacity="1" stroke="none"/>
<circle clip-path="url(#clip682)" cx="508.339" cy="1265.93" r="36" fill="#1f77b4" fill-rule="evenodd" fill-opacity="1" stroke="none"/>
<circle clip-path="url(#clip682)" cx="646.874" cy="1364.21" r="36" fill="#1f77b4" fill-rule="evenodd" fill-opacity="1" stroke="none"/>
<circle clip-path="url(#clip682)" cx="698.824" cy="1364.21" r="36" fill="#1f77b4" fill-rule="evenodd" fill-opacity="1" stroke="none"/>
<circle clip-path="url(#clip682)" cx="586.265" cy="1285.59" r="36" fill="#1f77b4" fill-rule="evenodd" fill-opacity="1" stroke="none"/>
<circle clip-path="url(#clip682)" cx="906.626" cy="794.181" r="36" fill="#1f77b4" fill-rule="evenodd" fill-opacity="1" stroke="none"/>
<circle clip-path="url(#clip682)" cx="820.042" cy="1305.24" r="36" fill="#1f77b4" fill-rule="evenodd" fill-opacity="1" stroke="none"/>
<circle clip-path="url(#clip682)" cx="833.03" cy="1246.27" r="36" fill="#1f77b4" fill-rule="evenodd" fill-opacity="1" stroke="none"/>
<circle clip-path="url(#clip682)" cx="798.396" cy="1049.71" r="36" fill="#1f77b4" fill-rule="evenodd" fill-opacity="1" stroke="none"/>
<circle clip-path="url(#clip682)" cx="586.265" cy="302.775" r="36" fill="#1f77b4" fill-rule="evenodd" fill-opacity="1" stroke="none"/>
<circle clip-path="url(#clip682)" cx="681.507" cy="1305.24" r="36" fill="#1f77b4" fill-rule="evenodd" fill-opacity="1" stroke="none"/>
<circle clip-path="url(#clip682)" cx="993.211" cy="1285.59" r="36" fill="#1f77b4" fill-rule="evenodd" fill-opacity="1" stroke="none"/>
<circle clip-path="url(#clip682)" cx="1270.28" cy="1344.55" r="36" fill="#1f77b4" fill-rule="evenodd" fill-opacity="1" stroke="none"/>
<circle clip-path="url(#clip682)" cx="1032.17" cy="1265.93" r="36" fill="#1f77b4" fill-rule="evenodd" fill-opacity="1" stroke="none"/>
<circle clip-path="url(#clip682)" cx="1365.52" cy="1246.27" r="36" fill="#1f77b4" fill-rule="evenodd" fill-opacity="1" stroke="none"/>
<circle clip-path="url(#clip682)" cx="1400.16" cy="1167.65" r="36" fill="#1f77b4" fill-rule="evenodd" fill-opacity="1" stroke="none"/>
<circle clip-path="url(#clip682)" cx="1296.26" cy="1167.65" r="36" fill="#1f77b4" fill-rule="evenodd" fill-opacity="1" stroke="none"/>
<circle clip-path="url(#clip682)" cx="1400.16" cy="1167.65" r="36" fill="#1f77b4" fill-rule="evenodd" fill-opacity="1" stroke="none"/>
<circle clip-path="url(#clip682)" cx="1209.67" cy="1383.87" r="36" fill="#1f77b4" fill-rule="evenodd" fill-opacity="1" stroke="none"/>
<circle clip-path="url(#clip682)" cx="1027.84" cy="243.806" r="36" fill="#1f77b4" fill-rule="evenodd" fill-opacity="1" stroke="none"/>
<circle clip-path="url(#clip682)" cx="1283.27" cy="990.743" r="36" fill="#1f77b4" fill-rule="evenodd" fill-opacity="1" stroke="none"/>
<circle clip-path="url(#clip682)" cx="1620.95" cy="1324.9" r="36" fill="#1f77b4" fill-rule="evenodd" fill-opacity="1" stroke="none"/>
<circle clip-path="url(#clip682)" cx="1439.12" cy="1167.65" r="36" fill="#1f77b4" fill-rule="evenodd" fill-opacity="1" stroke="none"/>
<circle clip-path="url(#clip682)" cx="1720.52" cy="990.743" r="36" fill="#1f77b4" fill-rule="evenodd" fill-opacity="1" stroke="none"/>
<circle clip-path="url(#clip682)" cx="1452.11" cy="1364.21" r="36" fill="#1f77b4" fill-rule="evenodd" fill-opacity="1" stroke="none"/>
<circle clip-path="url(#clip682)" cx="1439.12" cy="1167.65" r="36" fill="#1f77b4" fill-rule="evenodd" fill-opacity="1" stroke="none"/>
<circle clip-path="url(#clip682)" cx="1720.52" cy="990.743" r="36" fill="#1f77b4" fill-rule="evenodd" fill-opacity="1" stroke="none"/>
<circle clip-path="url(#clip682)" cx="1646.92" cy="754.868" r="36" fill="#1f77b4" fill-rule="evenodd" fill-opacity="1" stroke="none"/>
<circle clip-path="url(#clip682)" cx="1638.26" cy="558.306" r="36" fill="#1f77b4" fill-rule="evenodd" fill-opacity="1" stroke="none"/>
<circle clip-path="url(#clip682)" cx="2010.58" cy="1108.68" r="36" fill="#1f77b4" fill-rule="evenodd" fill-opacity="1" stroke="none"/>
<circle clip-path="url(#clip682)" cx="2291.97" cy="1324.9" r="36" fill="#1f77b4" fill-rule="evenodd" fill-opacity="1" stroke="none"/>
<circle clip-path="url(#clip682)" cx="2127.46" cy="1246.27" r="36" fill="#1f77b4" fill-rule="evenodd" fill-opacity="1" stroke="none"/>
<circle clip-path="url(#clip682)" cx="2010.58" cy="1108.68" r="36" fill="#1f77b4" fill-rule="evenodd" fill-opacity="1" stroke="none"/>
</svg>
